<svg xmlns="http://www.w3.org/2000/svg" version="1.1" xmlns:xlink="http://www.w3.org/1999/xlink" xmlns:svgjs="http://svgjs.com/svgjs" width="1920" height="4000" preserveAspectRatio="none" viewBox="0 0 1920 4000"><g mask="url(&quot;#SvgjsMask1117&quot;)" fill="none"><rect width="1920" height="4000" x="0" y="0" fill="#0e2a47"></rect><path d="M58.4 -53.66L123.35 -16.16L123.35 58.84L58.4 96.34L-6.55 58.84L-6.55 -16.16zM58.4 171.34L123.35 208.84L123.35 283.84L58.4 321.34L-6.55 283.84L-6.55 208.84zM123.35 283.84L188.31 321.34L188.31 396.34L123.35 433.84L58.4 396.34L58.4 321.34zM123.35 508.84L188.31 546.34L188.31 621.34L123.35 658.84L58.4 621.34L58.4 546.34zM123.35 958.84L188.31 996.34L188.31 1071.34L123.35 1108.84L58.4 1071.34L58.4 996.34zM123.35 1183.84L188.31 1221.34L188.31 1296.34L123.35 1333.84L58.4 1296.34L58.4 1221.34zM58.4 1296.34L123.35 1333.84L123.35 1408.84L58.4 1446.34L-6.55 1408.84L-6.55 1333.84zM123.35 1408.84L188.31 1446.34L188.31 1521.34L123.35 1558.84L58.4 1521.34L58.4 1446.34zM58.4 1521.34L123.35 1558.84L123.35 1633.84L58.4 1671.34L-6.55 1633.84L-6.55 1558.84zM58.4 1746.34L123.35 1783.84L123.35 1858.84L58.4 1896.34L-6.55 1858.84L-6.55 1783.84zM58.4 1971.34L123.35 2008.84L123.35 2083.84L58.4 2121.34L-6.55 2083.84L-6.55 2008.84zM58.4 2421.34L123.35 2458.84L123.35 2533.84L58.4 2571.34L-6.55 2533.84L-6.55 2458.84zM58.4 2646.34L123.35 2683.84L123.35 2758.84L58.4 2796.34L-6.55 2758.84L-6.55 2683.84zM123.35 3208.84L188.31 3246.34L188.31 3321.34L123.35 3358.84L58.4 3321.34L58.4 3246.34zM123.35 3883.84L188.31 3921.34L188.31 3996.34L123.35 4033.84L58.4 3996.34L58.4 3921.34zM253.26 58.84L318.21 96.34L318.21 171.34L253.26 208.84L188.31 171.34L188.31 96.34zM188.31 621.34L253.26 658.84L253.26 733.84L188.31 771.34L123.35 733.84L123.35 658.84zM253.26 733.84L318.21 771.34L318.21 846.34L253.26 883.84L188.31 846.34L188.31 771.34zM188.31 846.34L253.26 883.84L253.26 958.84L188.31 996.34L123.35 958.84L123.35 883.84zM253.26 958.84L318.21 996.34L318.21 1071.34L253.26 1108.84L188.31 1071.34L188.31 996.34zM188.31 1521.34L253.26 1558.84L253.26 1633.84L188.31 1671.34L123.35 1633.84L123.35 1558.84zM188.31 1746.34L253.26 1783.84L253.26 1858.84L188.31 1896.34L123.35 1858.84L123.35 1783.84zM253.26 2308.84L318.21 2346.34L318.21 2421.34L253.26 2458.84L188.31 2421.34L188.31 2346.34zM188.31 2646.34L253.26 2683.84L253.26 2758.84L188.31 2796.34L123.35 2758.84L123.35 2683.84zM188.31 3771.34L253.26 3808.84L253.26 3883.84L188.31 3921.34L123.35 3883.84L123.35 3808.84zM253.26 3883.84L318.21 3921.34L318.21 3996.34L253.26 4033.84L188.31 3996.34L188.31 3921.34zM383.17 58.84L448.12 96.34L448.12 171.34L383.17 208.84L318.21 171.34L318.21 96.34zM383.17 283.84L448.12 321.34L448.12 396.34L383.17 433.84L318.21 396.34L318.21 321.34zM318.21 621.34L383.17 658.84L383.17 733.84L318.21 771.34L253.26 733.84L253.26 658.84zM383.17 733.84L448.12 771.34L448.12 846.34L383.17 883.84L318.21 846.34L318.21 771.34zM318.21 846.34L383.17 883.84L383.17 958.84L318.21 996.34L253.26 958.84L253.26 883.84zM383.17 958.84L448.12 996.34L448.12 1071.34L383.17 1108.84L318.21 1071.34L318.21 996.34zM318.21 1071.34L383.17 1108.84L383.17 1183.84L318.21 1221.34L253.26 1183.84L253.26 1108.84zM383.17 1183.84L448.12 1221.34L448.12 1296.34L383.17 1333.84L318.21 1296.34L318.21 1221.34zM318.21 1296.34L383.17 1333.84L383.17 1408.84L318.21 1446.34L253.26 1408.84L253.26 1333.84zM383.17 1633.84L448.12 1671.34L448.12 1746.34L383.17 1783.84L318.21 1746.34L318.21 1671.34zM383.17 1858.84L448.12 1896.34L448.12 1971.34L383.17 2008.84L318.21 1971.34L318.21 1896.34zM383.17 2083.84L448.12 2121.34L448.12 2196.34L383.17 2233.84L318.21 2196.34L318.21 2121.34zM318.21 2196.34L383.17 2233.84L383.17 2308.84L318.21 2346.34L253.26 2308.84L253.26 2233.84zM318.21 2421.34L383.17 2458.84L383.17 2533.84L318.21 2571.34L253.26 2533.84L253.26 2458.84zM383.17 2983.84L448.12 3021.34L448.12 3096.34L383.17 3133.84L318.21 3096.34L318.21 3021.34zM383.17 3208.84L448.12 3246.34L448.12 3321.34L383.17 3358.84L318.21 3321.34L318.21 3246.34zM318.21 3321.34L383.17 3358.84L383.17 3433.84L318.21 3471.34L253.26 3433.84L253.26 3358.84zM383.17 3433.84L448.12 3471.34L448.12 3546.34L383.17 3583.84L318.21 3546.34L318.21 3471.34zM318.21 3546.34L383.17 3583.84L383.17 3658.84L318.21 3696.34L253.26 3658.84L253.26 3583.84zM383.17 3883.84L448.12 3921.34L448.12 3996.34L383.17 4033.84L318.21 3996.34L318.21 3921.34zM513.08 283.84L578.03 321.34L578.03 396.34L513.08 433.84L448.12 396.34L448.12 321.34zM513.08 508.84L578.03 546.34L578.03 621.34L513.08 658.84L448.12 621.34L448.12 546.34zM448.12 621.34L513.08 658.84L513.08 733.84L448.12 771.34L383.17 733.84L383.17 658.84zM513.08 958.84L578.03 996.34L578.03 1071.34L513.08 1108.84L448.12 1071.34L448.12 996.34zM448.12 1296.34L513.08 1333.84L513.08 1408.84L448.12 1446.34L383.17 1408.84L383.17 1333.84zM448.12 1521.34L513.08 1558.84L513.08 1633.84L448.12 1671.34L383.17 1633.84L383.17 1558.84zM513.08 2083.84L578.03 2121.34L578.03 2196.34L513.08 2233.84L448.12 2196.34L448.12 2121.34zM448.12 2196.34L513.08 2233.84L513.08 2308.84L448.12 2346.34L383.17 2308.84L383.17 2233.84zM448.12 2871.34L513.08 2908.84L513.08 2983.84L448.12 3021.34L383.17 2983.84L383.17 2908.84zM448.12 3321.34L513.08 3358.84L513.08 3433.84L448.12 3471.34L383.17 3433.84L383.17 3358.84zM578.03 -53.66L642.98 -16.16L642.98 58.84L578.03 96.34L513.08 58.84L513.08 -16.16zM578.03 396.34L642.98 433.84L642.98 508.84L578.03 546.34L513.08 508.84L513.08 433.84zM642.98 958.84L707.94 996.34L707.94 1071.34L642.98 1108.84L578.03 1071.34L578.03 996.34zM642.98 1183.84L707.94 1221.34L707.94 1296.34L642.98 1333.84L578.03 1296.34L578.03 1221.34zM578.03 1296.34L642.98 1333.84L642.98 1408.84L578.03 1446.34L513.08 1408.84L513.08 1333.84zM642.98 1633.84L707.94 1671.34L707.94 1746.34L642.98 1783.84L578.03 1746.34L578.03 1671.34zM578.03 1746.34L642.98 1783.84L642.98 1858.84L578.03 1896.34L513.08 1858.84L513.08 1783.84zM578.03 1971.34L642.98 2008.84L642.98 2083.84L578.03 2121.34L513.08 2083.84L513.08 2008.84zM578.03 2196.34L642.98 2233.84L642.98 2308.84L578.03 2346.34L513.08 2308.84L513.08 2233.84zM642.98 2533.84L707.94 2571.34L707.94 2646.34L642.98 2683.84L578.03 2646.34L578.03 2571.34zM578.03 2646.34L642.98 2683.84L642.98 2758.84L578.03 2796.34L513.08 2758.84L513.08 2683.84zM578.03 2871.34L642.98 2908.84L642.98 2983.84L578.03 3021.34L513.08 2983.84L513.08 2908.84zM642.98 3433.84L707.94 3471.34L707.94 3546.34L642.98 3583.84L578.03 3546.34L578.03 3471.34zM578.03 3996.34L642.98 4033.84L642.98 4108.84L578.03 4146.34L513.08 4108.84L513.08 4033.84zM707.94 -53.66L772.89 -16.16L772.89 58.84L707.94 96.34L642.98 58.84L642.98 -16.16zM707.94 396.34L772.89 433.84L772.89 508.84L707.94 546.34L642.98 508.84L642.98 433.84zM707.94 621.34L772.89 658.84L772.89 733.84L707.94 771.34L642.98 733.84L642.98 658.84zM772.89 958.84L837.85 996.34L837.85 1071.34L772.89 1108.84L707.94 1071.34L707.94 996.34zM707.94 1071.34L772.89 1108.84L772.89 1183.84L707.94 1221.34L642.98 1183.84L642.98 1108.84zM772.89 1183.84L837.85 1221.34L837.85 1296.34L772.89 1333.84L707.94 1296.34L707.94 1221.34zM707.94 1296.34L772.89 1333.84L772.89 1408.84L707.94 1446.34L642.98 1408.84L642.98 1333.84zM772.89 1408.84L837.85 1446.34L837.85 1521.34L772.89 1558.84L707.94 1521.34L707.94 1446.34zM707.94 1521.34L772.89 1558.84L772.89 1633.84L707.94 1671.34L642.98 1633.84L642.98 1558.84zM772.89 1633.84L837.85 1671.34L837.85 1746.34L772.89 1783.84L707.94 1746.34L707.94 1671.34zM772.89 2083.84L837.85 2121.34L837.85 2196.34L772.89 2233.84L707.94 2196.34L707.94 2121.34zM772.89 2308.84L837.85 2346.34L837.85 2421.34L772.89 2458.84L707.94 2421.34L707.94 2346.34zM707.94 2646.34L772.89 2683.84L772.89 2758.84L707.94 2796.34L642.98 2758.84L642.98 2683.84zM707.94 2871.34L772.89 2908.84L772.89 2983.84L707.94 3021.34L642.98 2983.84L642.98 2908.84zM707.94 3096.34L772.89 3133.84L772.89 3208.84L707.94 3246.34L642.98 3208.84L642.98 3133.84zM772.89 3208.84L837.85 3246.34L837.85 3321.34L772.89 3358.84L707.94 3321.34L707.94 3246.34zM707.94 3321.34L772.89 3358.84L772.89 3433.84L707.94 3471.34L642.98 3433.84L642.98 3358.84zM837.84 -53.66L902.8 -16.16L902.8 58.84L837.84 96.34L772.89 58.84L772.89 -16.16zM902.8 508.84L967.75 546.34L967.75 621.34L902.8 658.84L837.84 621.34L837.84 546.34zM837.84 621.34L902.8 658.84L902.8 733.84L837.84 771.34L772.89 733.84L772.89 658.84zM902.8 733.84L967.75 771.34L967.75 846.34L902.8 883.84L837.84 846.34L837.84 771.34zM837.84 846.34L902.8 883.84L902.8 958.84L837.84 996.34L772.89 958.84L772.89 883.84zM902.8 958.84L967.75 996.34L967.75 1071.34L902.8 1108.84L837.84 1071.34L837.84 996.34zM837.84 1071.34L902.8 1108.84L902.8 1183.84L837.84 1221.34L772.89 1183.84L772.89 1108.84zM902.8 1408.84L967.75 1446.34L967.75 1521.34L902.8 1558.84L837.84 1521.34L837.84 1446.34zM902.8 1633.84L967.75 1671.34L967.75 1746.34L902.8 1783.84L837.84 1746.34L837.84 1671.34zM837.84 1746.34L902.8 1783.84L902.8 1858.84L837.84 1896.34L772.89 1858.84L772.89 1783.84zM902.8 2083.84L967.75 2121.34L967.75 2196.34L902.8 2233.84L837.84 2196.34L837.84 2121.34zM902.8 2533.84L967.75 2571.34L967.75 2646.34L902.8 2683.84L837.84 2646.34L837.84 2571.34zM837.84 2646.34L902.8 2683.84L902.8 2758.84L837.84 2796.34L772.89 2758.84L772.89 2683.84zM837.84 2871.34L902.8 2908.84L902.8 2983.84L837.84 3021.34L772.89 2983.84L772.89 2908.84zM902.8 2983.84L967.75 3021.34L967.75 3096.34L902.8 3133.84L837.84 3096.34L837.84 3021.34zM902.8 3208.84L967.75 3246.34L967.75 3321.34L902.8 3358.84L837.84 3321.34L837.84 3246.34zM837.84 3321.34L902.8 3358.84L902.8 3433.84L837.84 3471.34L772.89 3433.84L772.89 3358.84zM967.75 -53.66L1032.71 -16.16L1032.71 58.84L967.75 96.34L902.8 58.84L902.8 -16.16zM1032.71 283.84L1097.66 321.34L1097.66 396.34L1032.71 433.84L967.75 396.34L967.75 321.34zM1032.71 508.84L1097.66 546.34L1097.66 621.34L1032.71 658.84L967.75 621.34L967.75 546.34zM1032.71 733.84L1097.66 771.34L1097.66 846.34L1032.71 883.84L967.75 846.34L967.75 771.34zM967.75 1071.34L1032.71 1108.84L1032.71 1183.84L967.75 1221.34L902.8 1183.84L902.8 1108.84zM1032.71 1408.84L1097.66 1446.34L1097.66 1521.34L1032.71 1558.84L967.75 1521.34L967.75 1446.34zM967.75 1746.34L1032.71 1783.84L1032.71 1858.84L967.75 1896.34L902.8 1858.84L902.8 1783.84zM1032.71 2083.84L1097.66 2121.34L1097.66 2196.34L1032.71 2233.84L967.75 2196.34L967.75 2121.34zM967.75 2196.34L1032.71 2233.84L1032.71 2308.84L967.75 2346.34L902.8 2308.84L902.8 2233.84zM1032.71 2308.84L1097.66 2346.34L1097.66 2421.34L1032.71 2458.84L967.75 2421.34L967.75 2346.34zM1032.71 2758.84L1097.66 2796.34L1097.66 2871.34L1032.71 2908.84L967.75 2871.34L967.75 2796.34zM1032.71 2983.84L1097.66 3021.34L1097.66 3096.34L1032.71 3133.84L967.75 3096.34L967.75 3021.34zM967.75 3096.34L1032.71 3133.84L1032.71 3208.84L967.75 3246.34L902.8 3208.84L902.8 3133.84zM1032.71 3208.84L1097.66 3246.34L1097.66 3321.34L1032.71 3358.84L967.75 3321.34L967.75 3246.34zM967.75 3321.34L1032.71 3358.84L1032.71 3433.84L967.75 3471.34L902.8 3433.84L902.8 3358.84zM1032.71 3433.84L1097.66 3471.34L1097.66 3546.34L1032.71 3583.84L967.75 3546.34L967.75 3471.34zM967.75 3546.34L1032.71 3583.84L1032.71 3658.84L967.75 3696.34L902.8 3658.84L902.8 3583.84zM1097.66 -53.66L1162.61 -16.16L1162.61 58.84L1097.66 96.34L1032.71 58.84L1032.71 -16.16zM1162.61 58.84L1227.57 96.34L1227.57 171.34L1162.61 208.84L1097.66 171.34L1097.66 96.34zM1162.61 283.84L1227.57 321.34L1227.57 396.34L1162.61 433.84L1097.66 396.34L1097.66 321.34zM1097.66 396.34L1162.61 433.84L1162.61 508.84L1097.66 546.34L1032.71 508.84L1032.71 433.84zM1162.61 508.84L1227.57 546.34L1227.57 621.34L1162.61 658.84L1097.66 621.34L1097.66 546.34zM1097.66 846.34L1162.61 883.84L1162.61 958.84L1097.66 996.34L1032.71 958.84L1032.71 883.84zM1162.61 958.84L1227.57 996.34L1227.57 1071.34L1162.61 1108.84L1097.66 1071.34L1097.66 996.34zM1162.61 1633.84L1227.57 1671.34L1227.57 1746.34L1162.61 1783.84L1097.66 1746.34L1097.66 1671.34zM1162.61 1858.84L1227.57 1896.34L1227.57 1971.34L1162.61 2008.84L1097.66 1971.34L1097.66 1896.34zM1162.61 3433.84L1227.57 3471.34L1227.57 3546.34L1162.61 3583.84L1097.66 3546.34L1097.66 3471.34zM1097.66 3546.34L1162.61 3583.84L1162.61 3658.84L1097.66 3696.34L1032.71 3658.84L1032.71 3583.84zM1162.61 3883.84L1227.57 3921.34L1227.57 3996.34L1162.61 4033.84L1097.66 3996.34L1097.66 3921.34zM1097.66 3996.34L1162.61 4033.84L1162.61 4108.84L1097.66 4146.34L1032.71 4108.84L1032.71 4033.84zM1292.52 58.84L1357.47 96.34L1357.47 171.34L1292.52 208.84L1227.57 171.34L1227.57 96.34zM1227.57 171.34L1292.52 208.84L1292.52 283.84L1227.57 321.34L1162.61 283.84L1162.61 208.84zM1227.57 621.34L1292.52 658.84L1292.52 733.84L1227.57 771.34L1162.61 733.84L1162.61 658.84zM1227.57 846.34L1292.52 883.84L1292.52 958.84L1227.57 996.34L1162.61 958.84L1162.61 883.84zM1292.52 1408.84L1357.47 1446.34L1357.47 1521.34L1292.52 1558.84L1227.57 1521.34L1227.57 1446.34zM1292.52 1633.84L1357.47 1671.34L1357.47 1746.34L1292.52 1783.84L1227.57 1746.34L1227.57 1671.34zM1227.57 1971.34L1292.52 2008.84L1292.52 2083.84L1227.57 2121.34L1162.61 2083.84L1162.61 2008.84zM1292.52 2083.84L1357.47 2121.34L1357.47 2196.34L1292.52 2233.84L1227.57 2196.34L1227.57 2121.34zM1292.52 2533.84L1357.47 2571.34L1357.47 2646.34L1292.52 2683.84L1227.57 2646.34L1227.57 2571.34zM1227.57 2646.34L1292.52 2683.84L1292.52 2758.84L1227.57 2796.34L1162.61 2758.84L1162.61 2683.84zM1292.52 2758.84L1357.47 2796.34L1357.47 2871.34L1292.52 2908.84L1227.57 2871.34L1227.57 2796.34zM1292.52 2983.84L1357.47 3021.34L1357.47 3096.34L1292.52 3133.84L1227.57 3096.34L1227.57 3021.34zM1227.57 3096.34L1292.52 3133.84L1292.52 3208.84L1227.57 3246.34L1162.61 3208.84L1162.61 3133.84zM1292.52 3208.84L1357.47 3246.34L1357.47 3321.34L1292.52 3358.84L1227.57 3321.34L1227.57 3246.34zM1292.52 3433.84L1357.47 3471.34L1357.47 3546.34L1292.52 3583.84L1227.57 3546.34L1227.57 3471.34zM1227.57 3546.34L1292.52 3583.84L1292.52 3658.84L1227.57 3696.34L1162.61 3658.84L1162.61 3583.84zM1227.57 3771.34L1292.52 3808.84L1292.52 3883.84L1227.57 3921.34L1162.61 3883.84L1162.61 3808.84zM1422.43 58.84L1487.38 96.34L1487.38 171.34L1422.43 208.84L1357.48 171.34L1357.48 96.34zM1357.48 396.34L1422.43 433.84L1422.43 508.84L1357.48 546.34L1292.52 508.84L1292.52 433.84zM1422.43 508.84L1487.38 546.34L1487.38 621.34L1422.43 658.84L1357.48 621.34L1357.48 546.34zM1357.48 621.34L1422.43 658.84L1422.43 733.84L1357.48 771.34L1292.52 733.84L1292.52 658.84zM1357.48 1071.34L1422.43 1108.84L1422.43 1183.84L1357.48 1221.34L1292.52 1183.84L1292.52 1108.84zM1422.43 1183.84L1487.38 1221.34L1487.38 1296.34L1422.43 1333.84L1357.48 1296.34L1357.48 1221.34zM1422.43 1408.84L1487.38 1446.34L1487.38 1521.34L1422.43 1558.84L1357.48 1521.34L1357.48 1446.34zM1357.48 2196.34L1422.43 2233.84L1422.43 2308.84L1357.48 2346.34L1292.52 2308.84L1292.52 2233.84zM1357.48 2646.34L1422.43 2683.84L1422.43 2758.84L1357.48 2796.34L1292.52 2758.84L1292.52 2683.84zM1422.43 2983.84L1487.38 3021.34L1487.38 3096.34L1422.43 3133.84L1357.48 3096.34L1357.48 3021.34zM1357.48 3096.34L1422.43 3133.84L1422.43 3208.84L1357.48 3246.34L1292.52 3208.84L1292.52 3133.84zM1552.34 58.84L1617.29 96.34L1617.29 171.34L1552.34 208.84L1487.38 171.34L1487.38 96.34zM1487.38 171.34L1552.34 208.84L1552.34 283.84L1487.38 321.34L1422.43 283.84L1422.43 208.84zM1552.34 508.84L1617.29 546.34L1617.29 621.34L1552.34 658.84L1487.38 621.34L1487.38 546.34zM1487.38 621.34L1552.34 658.84L1552.34 733.84L1487.38 771.34L1422.43 733.84L1422.43 658.84zM1487.38 846.34L1552.34 883.84L1552.34 958.84L1487.38 996.34L1422.43 958.84L1422.43 883.84zM1552.34 958.84L1617.29 996.34L1617.29 1071.34L1552.34 1108.84L1487.38 1071.34L1487.38 996.34zM1552.34 1633.84L1617.29 1671.34L1617.29 1746.34L1552.34 1783.84L1487.38 1746.34L1487.38 1671.34zM1487.38 1746.34L1552.34 1783.84L1552.34 1858.84L1487.38 1896.34L1422.43 1858.84L1422.43 1783.84zM1487.38 1971.34L1552.34 2008.84L1552.34 2083.84L1487.38 2121.34L1422.43 2083.84L1422.43 2008.84zM1487.38 2196.34L1552.34 2233.84L1552.34 2308.84L1487.38 2346.34L1422.43 2308.84L1422.43 2233.84zM1552.34 3433.84L1617.29 3471.34L1617.29 3546.34L1552.34 3583.84L1487.38 3546.34L1487.38 3471.34zM1487.38 3546.34L1552.34 3583.84L1552.34 3658.84L1487.38 3696.34L1422.43 3658.84L1422.43 3583.84zM1552.34 3658.84L1617.29 3696.34L1617.29 3771.34L1552.34 3808.84L1487.38 3771.34L1487.38 3696.34zM1617.29 396.34L1682.24 433.84L1682.24 508.84L1617.29 546.34L1552.34 508.84L1552.34 433.84zM1682.24 733.84L1747.2 771.34L1747.2 846.34L1682.24 883.84L1617.29 846.34L1617.29 771.34zM1682.24 958.84L1747.2 996.34L1747.2 1071.34L1682.24 1108.84L1617.29 1071.34L1617.29 996.34zM1617.29 1071.34L1682.24 1108.84L1682.24 1183.84L1617.29 1221.34L1552.34 1183.84L1552.34 1108.84zM1617.29 1296.34L1682.24 1333.84L1682.24 1408.84L1617.29 1446.34L1552.34 1408.84L1552.34 1333.84zM1682.24 2308.84L1747.2 2346.34L1747.2 2421.34L1682.24 2458.84L1617.29 2421.34L1617.29 2346.34zM1617.29 2421.34L1682.24 2458.84L1682.24 2533.84L1617.29 2571.34L1552.34 2533.84L1552.34 2458.84zM1682.24 2758.84L1747.2 2796.34L1747.2 2871.34L1682.24 2908.84L1617.29 2871.34L1617.29 2796.34zM1617.29 3546.34L1682.24 3583.84L1682.24 3658.84L1617.29 3696.34L1552.34 3658.84L1552.34 3583.84zM1617.29 3771.34L1682.24 3808.84L1682.24 3883.84L1617.29 3921.34L1552.34 3883.84L1552.34 3808.84zM1812.15 283.84L1877.1 321.34L1877.1 396.34L1812.15 433.84L1747.2 396.34L1747.2 321.34zM1812.15 733.84L1877.1 771.34L1877.1 846.34L1812.15 883.84L1747.2 846.34L1747.2 771.34zM1747.2 846.34L1812.15 883.84L1812.15 958.84L1747.2 996.34L1682.24 958.84L1682.24 883.84zM1812.15 958.84L1877.1 996.34L1877.1 1071.34L1812.15 1108.84L1747.2 1071.34L1747.2 996.34zM1747.2 1071.34L1812.15 1108.84L1812.15 1183.84L1747.2 1221.34L1682.24 1183.84L1682.24 1108.84zM1812.15 1408.84L1877.1 1446.34L1877.1 1521.34L1812.15 1558.84L1747.2 1521.34L1747.2 1446.34zM1812.15 2308.84L1877.1 2346.34L1877.1 2421.34L1812.15 2458.84L1747.2 2421.34L1747.2 2346.34zM1747.2 2646.34L1812.15 2683.84L1812.15 2758.84L1747.2 2796.34L1682.24 2758.84L1682.24 2683.84zM1812.15 2983.84L1877.1 3021.34L1877.1 3096.34L1812.15 3133.84L1747.2 3096.34L1747.2 3021.34zM1747.2 3321.34L1812.15 3358.84L1812.15 3433.84L1747.2 3471.34L1682.24 3433.84L1682.24 3358.84zM1812.15 3433.84L1877.1 3471.34L1877.1 3546.34L1812.15 3583.84L1747.2 3546.34L1747.2 3471.34zM1812.15 3658.84L1877.1 3696.34L1877.1 3771.34L1812.15 3808.84L1747.2 3771.34L1747.2 3696.34zM1747.2 3771.34L1812.15 3808.84L1812.15 3883.84L1747.2 3921.34L1682.24 3883.84L1682.24 3808.84zM1747.2 3996.34L1812.15 4033.84L1812.15 4108.84L1747.2 4146.34L1682.24 4108.84L1682.24 4033.84zM1877.11 -53.66L1942.06 -16.16L1942.06 58.84L1877.11 96.34L1812.15 58.84L1812.15 -16.16zM1942.06 58.84L2007.01 96.34L2007.01 171.34L1942.06 208.84L1877.11 171.34L1877.11 96.34zM1877.11 396.34L1942.06 433.84L1942.06 508.84L1877.11 546.34L1812.15 508.84L1812.15 433.84zM1942.06 958.84L2007.01 996.34L2007.01 1071.34L1942.06 1108.84L1877.11 1071.34L1877.11 996.34zM1877.11 1071.34L1942.06 1108.84L1942.06 1183.84L1877.11 1221.34L1812.15 1183.84L1812.15 1108.84zM1942.06 1408.84L2007.01 1446.34L2007.01 1521.34L1942.06 1558.84L1877.11 1521.34L1877.11 1446.34zM1942.06 1633.84L2007.01 1671.34L2007.01 1746.34L1942.06 1783.84L1877.11 1746.34L1877.11 1671.34zM1877.11 1746.34L1942.06 1783.84L1942.06 1858.84L1877.11 1896.34L1812.15 1858.84L1812.15 1783.84zM1877.11 2196.34L1942.06 2233.84L1942.06 2308.84L1877.11 2346.34L1812.15 2308.84L1812.15 2233.84zM1942.06 2533.84L2007.01 2571.34L2007.01 2646.34L1942.06 2683.84L1877.11 2646.34L1877.11 2571.34zM1877.11 2646.34L1942.06 2683.84L1942.06 2758.84L1877.11 2796.34L1812.15 2758.84L1812.15 2683.84zM1877.11 3996.34L1942.06 4033.84L1942.06 4108.84L1877.11 4146.34L1812.15 4108.84L1812.15 4033.84z" stroke="#03305d" stroke-width="2"></path><path d="M50.9 -53.66 a7.5 7.5 0 1 0 15 0 a7.5 7.5 0 1 0 -15 0zM115.85 -16.16 a7.5 7.5 0 1 0 15 0 a7.5 7.5 0 1 0 -15 0zM115.85 58.84 a7.5 7.5 0 1 0 15 0 a7.5 7.5 0 1 0 -15 0zM50.9 96.34 a7.5 7.5 0 1 0 15 0 a7.5 7.5 0 1 0 -15 0zM-14.05 58.84 a7.5 7.5 0 1 0 15 0 a7.5 7.5 0 1 0 -15 0zM-14.05 -16.16 a7.5 7.5 0 1 0 15 0 a7.5 7.5 0 1 0 -15 0zM50.9 171.34 a7.5 7.5 0 1 0 15 0 a7.5 7.5 0 1 0 -15 0zM115.85 208.84 a7.5 7.5 0 1 0 15 0 a7.5 7.5 0 1 0 -15 0zM115.85 283.84 a7.5 7.5 0 1 0 15 0 a7.5 7.5 0 1 0 -15 0zM50.9 321.34 a7.5 7.5 0 1 0 15 0 a7.5 7.5 0 1 0 -15 0zM-14.05 283.84 a7.5 7.5 0 1 0 15 0 a7.5 7.5 0 1 0 -15 0zM-14.05 208.84 a7.5 7.5 0 1 0 15 0 a7.5 7.5 0 1 0 -15 0zM180.81 321.34 a7.5 7.5 0 1 0 15 0 a7.5 7.5 0 1 0 -15 0zM180.81 396.34 a7.5 7.5 0 1 0 15 0 a7.5 7.5 0 1 0 -15 0zM115.85 433.84 a7.5 7.5 0 1 0 15 0 a7.5 7.5 0 1 0 -15 0zM50.9 396.34 a7.5 7.5 0 1 0 15 0 a7.5 7.5 0 1 0 -15 0zM115.85 508.84 a7.5 7.5 0 1 0 15 0 a7.5 7.5 0 1 0 -15 0zM180.81 546.34 a7.5 7.5 0 1 0 15 0 a7.5 7.5 0 1 0 -15 0zM180.81 621.34 a7.5 7.5 0 1 0 15 0 a7.5 7.5 0 1 0 -15 0zM115.85 658.84 a7.5 7.5 0 1 0 15 0 a7.5 7.5 0 1 0 -15 0zM50.9 621.34 a7.5 7.5 0 1 0 15 0 a7.5 7.5 0 1 0 -15 0zM50.9 546.34 a7.5 7.5 0 1 0 15 0 a7.5 7.5 0 1 0 -15 0zM115.85 958.84 a7.5 7.5 0 1 0 15 0 a7.5 7.5 0 1 0 -15 0zM180.81 996.34 a7.5 7.5 0 1 0 15 0 a7.5 7.5 0 1 0 -15 0zM180.81 1071.34 a7.5 7.5 0 1 0 15 0 a7.5 7.5 0 1 0 -15 0zM115.85 1108.84 a7.5 7.5 0 1 0 15 0 a7.5 7.5 0 1 0 -15 0zM50.9 1071.34 a7.5 7.5 0 1 0 15 0 a7.5 7.5 0 1 0 -15 0zM50.9 996.34 a7.5 7.5 0 1 0 15 0 a7.5 7.5 0 1 0 -15 0zM115.85 1183.84 a7.5 7.5 0 1 0 15 0 a7.5 7.5 0 1 0 -15 0zM180.81 1221.34 a7.5 7.5 0 1 0 15 0 a7.5 7.5 0 1 0 -15 0zM180.81 1296.34 a7.5 7.5 0 1 0 15 0 a7.5 7.5 0 1 0 -15 0zM115.85 1333.84 a7.5 7.5 0 1 0 15 0 a7.5 7.5 0 1 0 -15 0zM50.9 1296.34 a7.5 7.5 0 1 0 15 0 a7.5 7.5 0 1 0 -15 0zM50.9 1221.34 a7.5 7.5 0 1 0 15 0 a7.5 7.5 0 1 0 -15 0zM115.85 1408.84 a7.5 7.5 0 1 0 15 0 a7.5 7.5 0 1 0 -15 0zM50.9 1446.34 a7.5 7.5 0 1 0 15 0 a7.5 7.5 0 1 0 -15 0zM-14.05 1408.84 a7.5 7.5 0 1 0 15 0 a7.5 7.5 0 1 0 -15 0zM-14.05 1333.84 a7.5 7.5 0 1 0 15 0 a7.5 7.5 0 1 0 -15 0zM180.81 1446.34 a7.5 7.5 0 1 0 15 0 a7.5 7.5 0 1 0 -15 0zM180.81 1521.34 a7.5 7.5 0 1 0 15 0 a7.5 7.5 0 1 0 -15 0zM115.85 1558.84 a7.5 7.5 0 1 0 15 0 a7.5 7.5 0 1 0 -15 0zM50.9 1521.34 a7.5 7.5 0 1 0 15 0 a7.5 7.5 0 1 0 -15 0zM115.85 1633.84 a7.5 7.5 0 1 0 15 0 a7.5 7.5 0 1 0 -15 0zM50.9 1671.34 a7.5 7.5 0 1 0 15 0 a7.5 7.5 0 1 0 -15 0zM-14.05 1633.84 a7.5 7.5 0 1 0 15 0 a7.5 7.5 0 1 0 -15 0zM-14.05 1558.84 a7.5 7.5 0 1 0 15 0 a7.5 7.5 0 1 0 -15 0zM50.9 1746.34 a7.5 7.5 0 1 0 15 0 a7.5 7.5 0 1 0 -15 0zM115.85 1783.84 a7.5 7.5 0 1 0 15 0 a7.5 7.5 0 1 0 -15 0zM115.85 1858.84 a7.5 7.5 0 1 0 15 0 a7.5 7.5 0 1 0 -15 0zM50.9 1896.34 a7.5 7.5 0 1 0 15 0 a7.5 7.5 0 1 0 -15 0zM-14.05 1858.84 a7.5 7.5 0 1 0 15 0 a7.5 7.5 0 1 0 -15 0zM-14.05 1783.84 a7.5 7.5 0 1 0 15 0 a7.5 7.5 0 1 0 -15 0zM50.9 1971.34 a7.5 7.5 0 1 0 15 0 a7.5 7.5 0 1 0 -15 0zM115.85 2008.84 a7.5 7.5 0 1 0 15 0 a7.5 7.5 0 1 0 -15 0zM115.85 2083.84 a7.5 7.5 0 1 0 15 0 a7.5 7.5 0 1 0 -15 0zM50.9 2121.34 a7.5 7.5 0 1 0 15 0 a7.5 7.5 0 1 0 -15 0zM-14.05 2083.84 a7.5 7.5 0 1 0 15 0 a7.5 7.5 0 1 0 -15 0zM-14.05 2008.84 a7.5 7.5 0 1 0 15 0 a7.5 7.5 0 1 0 -15 0zM50.9 2421.34 a7.5 7.5 0 1 0 15 0 a7.5 7.5 0 1 0 -15 0zM115.85 2458.84 a7.5 7.5 0 1 0 15 0 a7.5 7.5 0 1 0 -15 0zM115.85 2533.84 a7.5 7.5 0 1 0 15 0 a7.5 7.5 0 1 0 -15 0zM50.9 2571.34 a7.5 7.5 0 1 0 15 0 a7.5 7.5 0 1 0 -15 0zM-14.05 2533.84 a7.5 7.5 0 1 0 15 0 a7.5 7.5 0 1 0 -15 0zM-14.05 2458.84 a7.5 7.5 0 1 0 15 0 a7.5 7.5 0 1 0 -15 0zM50.9 2646.34 a7.5 7.5 0 1 0 15 0 a7.5 7.5 0 1 0 -15 0zM115.85 2683.84 a7.5 7.5 0 1 0 15 0 a7.5 7.5 0 1 0 -15 0zM115.85 2758.84 a7.5 7.5 0 1 0 15 0 a7.5 7.5 0 1 0 -15 0zM50.9 2796.34 a7.5 7.5 0 1 0 15 0 a7.5 7.5 0 1 0 -15 0zM-14.05 2758.84 a7.5 7.5 0 1 0 15 0 a7.5 7.5 0 1 0 -15 0zM-14.05 2683.84 a7.5 7.5 0 1 0 15 0 a7.5 7.5 0 1 0 -15 0zM115.85 3208.84 a7.5 7.5 0 1 0 15 0 a7.5 7.5 0 1 0 -15 0zM180.81 3246.34 a7.5 7.5 0 1 0 15 0 a7.5 7.5 0 1 0 -15 0zM180.81 3321.34 a7.5 7.5 0 1 0 15 0 a7.5 7.5 0 1 0 -15 0zM115.85 3358.84 a7.5 7.5 0 1 0 15 0 a7.5 7.5 0 1 0 -15 0zM50.9 3321.34 a7.5 7.5 0 1 0 15 0 a7.5 7.5 0 1 0 -15 0zM50.9 3246.34 a7.5 7.5 0 1 0 15 0 a7.5 7.5 0 1 0 -15 0zM115.85 3883.84 a7.5 7.5 0 1 0 15 0 a7.5 7.5 0 1 0 -15 0zM180.81 3921.34 a7.5 7.5 0 1 0 15 0 a7.5 7.5 0 1 0 -15 0zM180.81 3996.34 a7.5 7.5 0 1 0 15 0 a7.5 7.5 0 1 0 -15 0zM115.85 4033.84 a7.5 7.5 0 1 0 15 0 a7.5 7.5 0 1 0 -15 0zM50.9 3996.34 a7.5 7.5 0 1 0 15 0 a7.5 7.5 0 1 0 -15 0zM50.9 3921.34 a7.5 7.5 0 1 0 15 0 a7.5 7.5 0 1 0 -15 0zM245.76 58.84 a7.5 7.5 0 1 0 15 0 a7.5 7.5 0 1 0 -15 0zM310.71 96.34 a7.5 7.5 0 1 0 15 0 a7.5 7.5 0 1 0 -15 0zM310.71 171.34 a7.5 7.5 0 1 0 15 0 a7.5 7.5 0 1 0 -15 0zM245.76 208.84 a7.5 7.5 0 1 0 15 0 a7.5 7.5 0 1 0 -15 0zM180.81 171.34 a7.5 7.5 0 1 0 15 0 a7.5 7.5 0 1 0 -15 0zM180.81 96.34 a7.5 7.5 0 1 0 15 0 a7.5 7.5 0 1 0 -15 0zM245.76 658.84 a7.5 7.5 0 1 0 15 0 a7.5 7.5 0 1 0 -15 0zM245.76 733.84 a7.5 7.5 0 1 0 15 0 a7.5 7.5 0 1 0 -15 0zM180.81 771.34 a7.5 7.5 0 1 0 15 0 a7.5 7.5 0 1 0 -15 0zM115.85 733.84 a7.5 7.5 0 1 0 15 0 a7.5 7.5 0 1 0 -15 0zM310.71 771.34 a7.5 7.5 0 1 0 15 0 a7.5 7.5 0 1 0 -15 0zM310.71 846.34 a7.5 7.5 0 1 0 15 0 a7.5 7.5 0 1 0 -15 0zM245.76 883.84 a7.5 7.5 0 1 0 15 0 a7.5 7.5 0 1 0 -15 0zM180.81 846.34 a7.5 7.5 0 1 0 15 0 a7.5 7.5 0 1 0 -15 0zM245.76 958.84 a7.5 7.5 0 1 0 15 0 a7.5 7.5 0 1 0 -15 0zM115.85 883.84 a7.5 7.5 0 1 0 15 0 a7.5 7.5 0 1 0 -15 0zM310.71 996.34 a7.5 7.5 0 1 0 15 0 a7.5 7.5 0 1 0 -15 0zM310.71 1071.34 a7.5 7.5 0 1 0 15 0 a7.5 7.5 0 1 0 -15 0zM245.76 1108.84 a7.5 7.5 0 1 0 15 0 a7.5 7.5 0 1 0 -15 0zM245.76 1558.84 a7.5 7.5 0 1 0 15 0 a7.5 7.5 0 1 0 -15 0zM245.76 1633.84 a7.5 7.5 0 1 0 15 0 a7.5 7.5 0 1 0 -15 0zM180.81 1671.34 a7.5 7.5 0 1 0 15 0 a7.5 7.5 0 1 0 -15 0zM180.81 1746.34 a7.5 7.5 0 1 0 15 0 a7.5 7.5 0 1 0 -15 0zM245.76 1783.84 a7.5 7.5 0 1 0 15 0 a7.5 7.5 0 1 0 -15 0zM245.76 1858.84 a7.5 7.5 0 1 0 15 0 a7.5 7.5 0 1 0 -15 0zM180.81 1896.34 a7.5 7.5 0 1 0 15 0 a7.5 7.5 0 1 0 -15 0zM245.76 2308.84 a7.5 7.5 0 1 0 15 0 a7.5 7.5 0 1 0 -15 0zM310.71 2346.34 a7.5 7.5 0 1 0 15 0 a7.5 7.5 0 1 0 -15 0zM310.71 2421.34 a7.5 7.5 0 1 0 15 0 a7.5 7.5 0 1 0 -15 0zM245.76 2458.84 a7.5 7.5 0 1 0 15 0 a7.5 7.5 0 1 0 -15 0zM180.81 2421.34 a7.5 7.5 0 1 0 15 0 a7.5 7.5 0 1 0 -15 0zM180.81 2346.34 a7.5 7.5 0 1 0 15 0 a7.5 7.5 0 1 0 -15 0zM180.81 2646.34 a7.5 7.5 0 1 0 15 0 a7.5 7.5 0 1 0 -15 0zM245.76 2683.84 a7.5 7.5 0 1 0 15 0 a7.5 7.5 0 1 0 -15 0zM245.76 2758.84 a7.5 7.5 0 1 0 15 0 a7.5 7.5 0 1 0 -15 0zM180.81 2796.34 a7.5 7.5 0 1 0 15 0 a7.5 7.5 0 1 0 -15 0zM180.81 3771.34 a7.5 7.5 0 1 0 15 0 a7.5 7.5 0 1 0 -15 0zM245.76 3808.84 a7.5 7.5 0 1 0 15 0 a7.5 7.5 0 1 0 -15 0zM245.76 3883.84 a7.5 7.5 0 1 0 15 0 a7.5 7.5 0 1 0 -15 0zM115.85 3808.84 a7.5 7.5 0 1 0 15 0 a7.5 7.5 0 1 0 -15 0zM310.71 3921.34 a7.5 7.5 0 1 0 15 0 a7.5 7.5 0 1 0 -15 0zM310.71 3996.34 a7.5 7.5 0 1 0 15 0 a7.5 7.5 0 1 0 -15 0zM245.76 4033.84 a7.5 7.5 0 1 0 15 0 a7.5 7.5 0 1 0 -15 0zM375.67 58.84 a7.5 7.5 0 1 0 15 0 a7.5 7.5 0 1 0 -15 0zM440.62 96.34 a7.5 7.5 0 1 0 15 0 a7.5 7.5 0 1 0 -15 0zM440.62 171.34 a7.5 7.5 0 1 0 15 0 a7.5 7.5 0 1 0 -15 0zM375.67 208.84 a7.5 7.5 0 1 0 15 0 a7.5 7.5 0 1 0 -15 0zM375.67 283.84 a7.5 7.5 0 1 0 15 0 a7.5 7.5 0 1 0 -15 0zM440.62 321.34 a7.5 7.5 0 1 0 15 0 a7.5 7.5 0 1 0 -15 0zM440.62 396.34 a7.5 7.5 0 1 0 15 0 a7.5 7.5 0 1 0 -15 0zM375.67 433.84 a7.5 7.5 0 1 0 15 0 a7.5 7.5 0 1 0 -15 0zM310.71 396.34 a7.5 7.5 0 1 0 15 0 a7.5 7.5 0 1 0 -15 0zM310.71 321.34 a7.5 7.5 0 1 0 15 0 a7.5 7.5 0 1 0 -15 0zM310.71 621.34 a7.5 7.5 0 1 0 15 0 a7.5 7.5 0 1 0 -15 0zM375.67 658.84 a7.5 7.5 0 1 0 15 0 a7.5 7.5 0 1 0 -15 0zM375.67 733.84 a7.5 7.5 0 1 0 15 0 a7.5 7.5 0 1 0 -15 0zM440.62 771.34 a7.5 7.5 0 1 0 15 0 a7.5 7.5 0 1 0 -15 0zM440.62 846.34 a7.5 7.5 0 1 0 15 0 a7.5 7.5 0 1 0 -15 0zM375.67 883.84 a7.5 7.5 0 1 0 15 0 a7.5 7.5 0 1 0 -15 0zM375.67 958.84 a7.5 7.5 0 1 0 15 0 a7.5 7.5 0 1 0 -15 0zM440.62 996.34 a7.5 7.5 0 1 0 15 0 a7.5 7.5 0 1 0 -15 0zM440.62 1071.34 a7.5 7.5 0 1 0 15 0 a7.5 7.5 0 1 0 -15 0zM375.67 1108.84 a7.5 7.5 0 1 0 15 0 a7.5 7.5 0 1 0 -15 0zM375.67 1183.84 a7.5 7.5 0 1 0 15 0 a7.5 7.5 0 1 0 -15 0zM310.71 1221.34 a7.5 7.5 0 1 0 15 0 a7.5 7.5 0 1 0 -15 0zM245.76 1183.84 a7.5 7.5 0 1 0 15 0 a7.5 7.5 0 1 0 -15 0zM440.62 1221.34 a7.5 7.5 0 1 0 15 0 a7.5 7.5 0 1 0 -15 0zM440.62 1296.34 a7.5 7.5 0 1 0 15 0 a7.5 7.5 0 1 0 -15 0zM375.67 1333.84 a7.5 7.5 0 1 0 15 0 a7.5 7.5 0 1 0 -15 0zM310.71 1296.34 a7.5 7.5 0 1 0 15 0 a7.5 7.5 0 1 0 -15 0zM375.67 1408.84 a7.5 7.5 0 1 0 15 0 a7.5 7.5 0 1 0 -15 0zM310.71 1446.34 a7.5 7.5 0 1 0 15 0 a7.5 7.5 0 1 0 -15 0zM245.76 1408.84 a7.5 7.5 0 1 0 15 0 a7.5 7.5 0 1 0 -15 0zM245.76 1333.84 a7.5 7.5 0 1 0 15 0 a7.5 7.5 0 1 0 -15 0zM375.67 1633.84 a7.5 7.5 0 1 0 15 0 a7.5 7.5 0 1 0 -15 0zM440.62 1671.34 a7.5 7.5 0 1 0 15 0 a7.5 7.5 0 1 0 -15 0zM440.62 1746.34 a7.5 7.5 0 1 0 15 0 a7.5 7.5 0 1 0 -15 0zM375.67 1783.84 a7.5 7.5 0 1 0 15 0 a7.5 7.5 0 1 0 -15 0zM310.71 1746.34 a7.5 7.5 0 1 0 15 0 a7.5 7.5 0 1 0 -15 0zM310.71 1671.34 a7.5 7.5 0 1 0 15 0 a7.5 7.5 0 1 0 -15 0zM375.67 1858.84 a7.5 7.5 0 1 0 15 0 a7.5 7.5 0 1 0 -15 0zM440.62 1896.34 a7.5 7.5 0 1 0 15 0 a7.5 7.5 0 1 0 -15 0zM440.62 1971.34 a7.5 7.5 0 1 0 15 0 a7.5 7.5 0 1 0 -15 0zM375.67 2008.84 a7.5 7.5 0 1 0 15 0 a7.5 7.5 0 1 0 -15 0zM310.71 1971.34 a7.5 7.5 0 1 0 15 0 a7.5 7.5 0 1 0 -15 0zM310.71 1896.34 a7.5 7.5 0 1 0 15 0 a7.5 7.5 0 1 0 -15 0zM375.67 2083.84 a7.5 7.5 0 1 0 15 0 a7.5 7.5 0 1 0 -15 0zM440.62 2121.34 a7.5 7.5 0 1 0 15 0 a7.5 7.5 0 1 0 -15 0zM440.62 2196.34 a7.5 7.5 0 1 0 15 0 a7.5 7.5 0 1 0 -15 0zM375.67 2233.84 a7.5 7.5 0 1 0 15 0 a7.5 7.5 0 1 0 -15 0zM310.71 2196.34 a7.5 7.5 0 1 0 15 0 a7.5 7.5 0 1 0 -15 0zM310.71 2121.34 a7.5 7.5 0 1 0 15 0 a7.5 7.5 0 1 0 -15 0zM375.67 2308.84 a7.5 7.5 0 1 0 15 0 a7.5 7.5 0 1 0 -15 0zM245.76 2233.84 a7.5 7.5 0 1 0 15 0 a7.5 7.5 0 1 0 -15 0zM375.67 2458.84 a7.5 7.5 0 1 0 15 0 a7.5 7.5 0 1 0 -15 0zM375.67 2533.84 a7.5 7.5 0 1 0 15 0 a7.5 7.5 0 1 0 -15 0zM310.71 2571.34 a7.5 7.5 0 1 0 15 0 a7.5 7.5 0 1 0 -15 0zM245.76 2533.84 a7.5 7.5 0 1 0 15 0 a7.5 7.5 0 1 0 -15 0zM375.67 2983.84 a7.5 7.5 0 1 0 15 0 a7.5 7.5 0 1 0 -15 0zM440.62 3021.34 a7.5 7.5 0 1 0 15 0 a7.5 7.5 0 1 0 -15 0zM440.62 3096.34 a7.5 7.5 0 1 0 15 0 a7.5 7.5 0 1 0 -15 0zM375.67 3133.84 a7.5 7.5 0 1 0 15 0 a7.5 7.5 0 1 0 -15 0zM310.71 3096.34 a7.5 7.5 0 1 0 15 0 a7.5 7.5 0 1 0 -15 0zM310.71 3021.34 a7.5 7.5 0 1 0 15 0 a7.5 7.5 0 1 0 -15 0zM375.67 3208.84 a7.5 7.5 0 1 0 15 0 a7.5 7.5 0 1 0 -15 0zM440.62 3246.34 a7.5 7.5 0 1 0 15 0 a7.5 7.5 0 1 0 -15 0zM440.62 3321.34 a7.5 7.5 0 1 0 15 0 a7.5 7.5 0 1 0 -15 0zM375.67 3358.84 a7.5 7.5 0 1 0 15 0 a7.5 7.5 0 1 0 -15 0zM310.71 3321.34 a7.5 7.5 0 1 0 15 0 a7.5 7.5 0 1 0 -15 0zM310.71 3246.34 a7.5 7.5 0 1 0 15 0 a7.5 7.5 0 1 0 -15 0zM375.67 3433.84 a7.5 7.5 0 1 0 15 0 a7.5 7.5 0 1 0 -15 0zM310.71 3471.34 a7.5 7.5 0 1 0 15 0 a7.5 7.5 0 1 0 -15 0zM245.76 3433.84 a7.5 7.5 0 1 0 15 0 a7.5 7.5 0 1 0 -15 0zM245.76 3358.84 a7.5 7.5 0 1 0 15 0 a7.5 7.5 0 1 0 -15 0zM440.62 3471.34 a7.5 7.5 0 1 0 15 0 a7.5 7.5 0 1 0 -15 0zM440.62 3546.34 a7.5 7.5 0 1 0 15 0 a7.5 7.5 0 1 0 -15 0zM375.67 3583.84 a7.5 7.5 0 1 0 15 0 a7.5 7.5 0 1 0 -15 0zM310.71 3546.34 a7.5 7.5 0 1 0 15 0 a7.5 7.5 0 1 0 -15 0zM375.67 3658.84 a7.5 7.5 0 1 0 15 0 a7.5 7.5 0 1 0 -15 0zM310.71 3696.34 a7.5 7.5 0 1 0 15 0 a7.5 7.5 0 1 0 -15 0zM245.76 3658.84 a7.5 7.5 0 1 0 15 0 a7.5 7.5 0 1 0 -15 0zM245.76 3583.84 a7.5 7.5 0 1 0 15 0 a7.5 7.5 0 1 0 -15 0zM375.67 3883.84 a7.5 7.5 0 1 0 15 0 a7.5 7.5 0 1 0 -15 0zM440.62 3921.34 a7.5 7.5 0 1 0 15 0 a7.5 7.5 0 1 0 -15 0zM440.62 3996.34 a7.5 7.5 0 1 0 15 0 a7.5 7.5 0 1 0 -15 0zM375.67 4033.84 a7.5 7.5 0 1 0 15 0 a7.5 7.5 0 1 0 -15 0zM505.58 283.84 a7.5 7.5 0 1 0 15 0 a7.5 7.5 0 1 0 -15 0zM570.53 321.34 a7.5 7.5 0 1 0 15 0 a7.5 7.5 0 1 0 -15 0zM570.53 396.34 a7.5 7.5 0 1 0 15 0 a7.5 7.5 0 1 0 -15 0zM505.58 433.84 a7.5 7.5 0 1 0 15 0 a7.5 7.5 0 1 0 -15 0zM505.58 508.84 a7.5 7.5 0 1 0 15 0 a7.5 7.5 0 1 0 -15 0zM570.53 546.34 a7.5 7.5 0 1 0 15 0 a7.5 7.5 0 1 0 -15 0zM570.53 621.34 a7.5 7.5 0 1 0 15 0 a7.5 7.5 0 1 0 -15 0zM505.58 658.84 a7.5 7.5 0 1 0 15 0 a7.5 7.5 0 1 0 -15 0zM440.62 621.34 a7.5 7.5 0 1 0 15 0 a7.5 7.5 0 1 0 -15 0zM440.62 546.34 a7.5 7.5 0 1 0 15 0 a7.5 7.5 0 1 0 -15 0zM505.58 733.84 a7.5 7.5 0 1 0 15 0 a7.5 7.5 0 1 0 -15 0zM505.58 958.84 a7.5 7.5 0 1 0 15 0 a7.5 7.5 0 1 0 -15 0zM570.53 996.34 a7.5 7.5 0 1 0 15 0 a7.5 7.5 0 1 0 -15 0zM570.53 1071.34 a7.5 7.5 0 1 0 15 0 a7.5 7.5 0 1 0 -15 0zM505.58 1108.84 a7.5 7.5 0 1 0 15 0 a7.5 7.5 0 1 0 -15 0zM505.58 1333.84 a7.5 7.5 0 1 0 15 0 a7.5 7.5 0 1 0 -15 0zM505.58 1408.84 a7.5 7.5 0 1 0 15 0 a7.5 7.5 0 1 0 -15 0zM440.62 1446.34 a7.5 7.5 0 1 0 15 0 a7.5 7.5 0 1 0 -15 0zM440.62 1521.34 a7.5 7.5 0 1 0 15 0 a7.5 7.5 0 1 0 -15 0zM505.58 1558.84 a7.5 7.5 0 1 0 15 0 a7.5 7.5 0 1 0 -15 0zM505.58 1633.84 a7.5 7.5 0 1 0 15 0 a7.5 7.5 0 1 0 -15 0zM375.67 1558.84 a7.5 7.5 0 1 0 15 0 a7.5 7.5 0 1 0 -15 0zM505.58 2083.84 a7.5 7.5 0 1 0 15 0 a7.5 7.5 0 1 0 -15 0zM570.53 2121.34 a7.5 7.5 0 1 0 15 0 a7.5 7.5 0 1 0 -15 0zM570.53 2196.34 a7.5 7.5 0 1 0 15 0 a7.5 7.5 0 1 0 -15 0zM505.58 2233.84 a7.5 7.5 0 1 0 15 0 a7.5 7.5 0 1 0 -15 0zM505.58 2308.84 a7.5 7.5 0 1 0 15 0 a7.5 7.5 0 1 0 -15 0zM440.62 2346.34 a7.5 7.5 0 1 0 15 0 a7.5 7.5 0 1 0 -15 0zM440.62 2871.34 a7.5 7.5 0 1 0 15 0 a7.5 7.5 0 1 0 -15 0zM505.58 2908.84 a7.5 7.5 0 1 0 15 0 a7.5 7.5 0 1 0 -15 0zM505.58 2983.84 a7.5 7.5 0 1 0 15 0 a7.5 7.5 0 1 0 -15 0zM375.67 2908.84 a7.5 7.5 0 1 0 15 0 a7.5 7.5 0 1 0 -15 0zM505.58 3358.84 a7.5 7.5 0 1 0 15 0 a7.5 7.5 0 1 0 -15 0zM505.58 3433.84 a7.5 7.5 0 1 0 15 0 a7.5 7.5 0 1 0 -15 0zM570.53 -53.66 a7.5 7.5 0 1 0 15 0 a7.5 7.5 0 1 0 -15 0zM635.48 -16.16 a7.5 7.5 0 1 0 15 0 a7.5 7.5 0 1 0 -15 0zM635.48 58.84 a7.5 7.5 0 1 0 15 0 a7.5 7.5 0 1 0 -15 0zM570.53 96.34 a7.5 7.5 0 1 0 15 0 a7.5 7.5 0 1 0 -15 0zM505.58 58.84 a7.5 7.5 0 1 0 15 0 a7.5 7.5 0 1 0 -15 0zM505.58 -16.16 a7.5 7.5 0 1 0 15 0 a7.5 7.5 0 1 0 -15 0zM635.48 433.84 a7.5 7.5 0 1 0 15 0 a7.5 7.5 0 1 0 -15 0zM635.48 508.84 a7.5 7.5 0 1 0 15 0 a7.5 7.5 0 1 0 -15 0zM635.48 958.84 a7.5 7.5 0 1 0 15 0 a7.5 7.5 0 1 0 -15 0zM700.44 996.34 a7.5 7.5 0 1 0 15 0 a7.5 7.5 0 1 0 -15 0zM700.44 1071.34 a7.5 7.5 0 1 0 15 0 a7.5 7.5 0 1 0 -15 0zM635.48 1108.84 a7.5 7.5 0 1 0 15 0 a7.5 7.5 0 1 0 -15 0zM635.48 1183.84 a7.5 7.5 0 1 0 15 0 a7.5 7.5 0 1 0 -15 0zM700.44 1221.34 a7.5 7.5 0 1 0 15 0 a7.5 7.5 0 1 0 -15 0zM700.44 1296.34 a7.5 7.5 0 1 0 15 0 a7.5 7.5 0 1 0 -15 0zM635.48 1333.84 a7.5 7.5 0 1 0 15 0 a7.5 7.5 0 1 0 -15 0zM570.53 1296.34 a7.5 7.5 0 1 0 15 0 a7.5 7.5 0 1 0 -15 0zM570.53 1221.34 a7.5 7.5 0 1 0 15 0 a7.5 7.5 0 1 0 -15 0zM635.48 1408.84 a7.5 7.5 0 1 0 15 0 a7.5 7.5 0 1 0 -15 0zM570.53 1446.34 a7.5 7.5 0 1 0 15 0 a7.5 7.5 0 1 0 -15 0zM635.48 1633.84 a7.5 7.5 0 1 0 15 0 a7.5 7.5 0 1 0 -15 0zM700.44 1671.34 a7.5 7.5 0 1 0 15 0 a7.5 7.5 0 1 0 -15 0zM700.44 1746.34 a7.5 7.5 0 1 0 15 0 a7.5 7.5 0 1 0 -15 0zM635.48 1783.84 a7.5 7.5 0 1 0 15 0 a7.5 7.5 0 1 0 -15 0zM570.53 1746.34 a7.5 7.5 0 1 0 15 0 a7.5 7.5 0 1 0 -15 0zM570.53 1671.34 a7.5 7.5 0 1 0 15 0 a7.5 7.5 0 1 0 -15 0zM635.48 1858.84 a7.5 7.5 0 1 0 15 0 a7.5 7.5 0 1 0 -15 0zM570.53 1896.34 a7.5 7.5 0 1 0 15 0 a7.5 7.5 0 1 0 -15 0zM505.58 1858.84 a7.5 7.5 0 1 0 15 0 a7.5 7.5 0 1 0 -15 0zM505.58 1783.84 a7.5 7.5 0 1 0 15 0 a7.5 7.5 0 1 0 -15 0zM570.53 1971.34 a7.5 7.5 0 1 0 15 0 a7.5 7.5 0 1 0 -15 0zM635.48 2008.84 a7.5 7.5 0 1 0 15 0 a7.5 7.5 0 1 0 -15 0zM635.48 2083.84 a7.5 7.5 0 1 0 15 0 a7.5 7.5 0 1 0 -15 0zM505.58 2008.84 a7.5 7.5 0 1 0 15 0 a7.5 7.5 0 1 0 -15 0zM635.48 2233.84 a7.5 7.5 0 1 0 15 0 a7.5 7.5 0 1 0 -15 0zM635.48 2308.84 a7.5 7.5 0 1 0 15 0 a7.5 7.5 0 1 0 -15 0zM570.53 2346.34 a7.5 7.5 0 1 0 15 0 a7.5 7.5 0 1 0 -15 0zM635.48 2533.84 a7.5 7.5 0 1 0 15 0 a7.5 7.5 0 1 0 -15 0zM700.44 2571.34 a7.5 7.5 0 1 0 15 0 a7.5 7.5 0 1 0 -15 0zM700.44 2646.34 a7.5 7.5 0 1 0 15 0 a7.5 7.5 0 1 0 -15 0zM635.48 2683.84 a7.5 7.5 0 1 0 15 0 a7.5 7.5 0 1 0 -15 0zM570.53 2646.34 a7.5 7.5 0 1 0 15 0 a7.5 7.5 0 1 0 -15 0zM570.53 2571.34 a7.5 7.5 0 1 0 15 0 a7.5 7.5 0 1 0 -15 0zM635.48 2758.84 a7.5 7.5 0 1 0 15 0 a7.5 7.5 0 1 0 -15 0zM570.53 2796.34 a7.5 7.5 0 1 0 15 0 a7.5 7.5 0 1 0 -15 0zM505.58 2758.84 a7.5 7.5 0 1 0 15 0 a7.5 7.5 0 1 0 -15 0zM505.58 2683.84 a7.5 7.5 0 1 0 15 0 a7.5 7.5 0 1 0 -15 0zM570.53 2871.34 a7.5 7.5 0 1 0 15 0 a7.5 7.5 0 1 0 -15 0zM635.48 2908.84 a7.5 7.5 0 1 0 15 0 a7.5 7.5 0 1 0 -15 0zM635.48 2983.84 a7.5 7.5 0 1 0 15 0 a7.5 7.5 0 1 0 -15 0zM570.53 3021.34 a7.5 7.5 0 1 0 15 0 a7.5 7.5 0 1 0 -15 0zM635.48 3433.84 a7.5 7.5 0 1 0 15 0 a7.5 7.5 0 1 0 -15 0zM700.44 3471.34 a7.5 7.5 0 1 0 15 0 a7.5 7.5 0 1 0 -15 0zM700.44 3546.34 a7.5 7.5 0 1 0 15 0 a7.5 7.5 0 1 0 -15 0zM635.48 3583.84 a7.5 7.5 0 1 0 15 0 a7.5 7.5 0 1 0 -15 0zM570.53 3546.34 a7.5 7.5 0 1 0 15 0 a7.5 7.5 0 1 0 -15 0zM570.53 3471.34 a7.5 7.5 0 1 0 15 0 a7.5 7.5 0 1 0 -15 0zM570.53 3996.34 a7.5 7.5 0 1 0 15 0 a7.5 7.5 0 1 0 -15 0zM635.48 4033.84 a7.5 7.5 0 1 0 15 0 a7.5 7.5 0 1 0 -15 0zM635.48 4108.84 a7.5 7.5 0 1 0 15 0 a7.5 7.5 0 1 0 -15 0zM570.53 4146.34 a7.5 7.5 0 1 0 15 0 a7.5 7.5 0 1 0 -15 0zM505.58 4108.84 a7.5 7.5 0 1 0 15 0 a7.5 7.5 0 1 0 -15 0zM505.58 4033.84 a7.5 7.5 0 1 0 15 0 a7.5 7.5 0 1 0 -15 0zM700.44 -53.66 a7.5 7.5 0 1 0 15 0 a7.5 7.5 0 1 0 -15 0zM765.39 -16.16 a7.5 7.5 0 1 0 15 0 a7.5 7.5 0 1 0 -15 0zM765.39 58.84 a7.5 7.5 0 1 0 15 0 a7.5 7.5 0 1 0 -15 0zM700.44 96.34 a7.5 7.5 0 1 0 15 0 a7.5 7.5 0 1 0 -15 0zM700.44 396.34 a7.5 7.5 0 1 0 15 0 a7.5 7.5 0 1 0 -15 0zM765.39 433.84 a7.5 7.5 0 1 0 15 0 a7.5 7.5 0 1 0 -15 0zM765.39 508.84 a7.5 7.5 0 1 0 15 0 a7.5 7.5 0 1 0 -15 0zM700.44 546.34 a7.5 7.5 0 1 0 15 0 a7.5 7.5 0 1 0 -15 0zM700.44 621.34 a7.5 7.5 0 1 0 15 0 a7.5 7.5 0 1 0 -15 0zM765.39 658.84 a7.5 7.5 0 1 0 15 0 a7.5 7.5 0 1 0 -15 0zM765.39 733.84 a7.5 7.5 0 1 0 15 0 a7.5 7.5 0 1 0 -15 0zM700.44 771.34 a7.5 7.5 0 1 0 15 0 a7.5 7.5 0 1 0 -15 0zM635.48 733.84 a7.5 7.5 0 1 0 15 0 a7.5 7.5 0 1 0 -15 0zM635.48 658.84 a7.5 7.5 0 1 0 15 0 a7.5 7.5 0 1 0 -15 0zM765.39 958.84 a7.5 7.5 0 1 0 15 0 a7.5 7.5 0 1 0 -15 0zM830.35 996.34 a7.5 7.5 0 1 0 15 0 a7.5 7.5 0 1 0 -15 0zM830.35 1071.34 a7.5 7.5 0 1 0 15 0 a7.5 7.5 0 1 0 -15 0zM765.39 1108.84 a7.5 7.5 0 1 0 15 0 a7.5 7.5 0 1 0 -15 0zM765.39 1183.84 a7.5 7.5 0 1 0 15 0 a7.5 7.5 0 1 0 -15 0zM830.35 1221.34 a7.5 7.5 0 1 0 15 0 a7.5 7.5 0 1 0 -15 0zM830.35 1296.34 a7.5 7.5 0 1 0 15 0 a7.5 7.5 0 1 0 -15 0zM765.39 1333.84 a7.5 7.5 0 1 0 15 0 a7.5 7.5 0 1 0 -15 0zM765.39 1408.84 a7.5 7.5 0 1 0 15 0 a7.5 7.5 0 1 0 -15 0zM700.44 1446.34 a7.5 7.5 0 1 0 15 0 a7.5 7.5 0 1 0 -15 0zM830.35 1446.34 a7.5 7.5 0 1 0 15 0 a7.5 7.5 0 1 0 -15 0zM830.35 1521.34 a7.5 7.5 0 1 0 15 0 a7.5 7.5 0 1 0 -15 0zM765.39 1558.84 a7.5 7.5 0 1 0 15 0 a7.5 7.5 0 1 0 -15 0zM700.44 1521.34 a7.5 7.5 0 1 0 15 0 a7.5 7.5 0 1 0 -15 0zM765.39 1633.84 a7.5 7.5 0 1 0 15 0 a7.5 7.5 0 1 0 -15 0zM635.48 1558.84 a7.5 7.5 0 1 0 15 0 a7.5 7.5 0 1 0 -15 0zM830.35 1671.34 a7.5 7.5 0 1 0 15 0 a7.5 7.5 0 1 0 -15 0zM830.35 1746.34 a7.5 7.5 0 1 0 15 0 a7.5 7.5 0 1 0 -15 0zM765.39 1783.84 a7.5 7.5 0 1 0 15 0 a7.5 7.5 0 1 0 -15 0zM765.39 2083.84 a7.5 7.5 0 1 0 15 0 a7.5 7.5 0 1 0 -15 0zM830.35 2121.34 a7.5 7.5 0 1 0 15 0 a7.5 7.5 0 1 0 -15 0zM830.35 2196.34 a7.5 7.5 0 1 0 15 0 a7.5 7.5 0 1 0 -15 0zM765.39 2233.84 a7.5 7.5 0 1 0 15 0 a7.5 7.5 0 1 0 -15 0zM700.44 2196.34 a7.5 7.5 0 1 0 15 0 a7.5 7.5 0 1 0 -15 0zM700.44 2121.34 a7.5 7.5 0 1 0 15 0 a7.5 7.5 0 1 0 -15 0zM765.39 2308.84 a7.5 7.5 0 1 0 15 0 a7.5 7.5 0 1 0 -15 0zM830.35 2346.34 a7.5 7.5 0 1 0 15 0 a7.5 7.5 0 1 0 -15 0zM830.35 2421.34 a7.5 7.5 0 1 0 15 0 a7.5 7.5 0 1 0 -15 0zM765.39 2458.84 a7.5 7.5 0 1 0 15 0 a7.5 7.5 0 1 0 -15 0zM700.44 2421.34 a7.5 7.5 0 1 0 15 0 a7.5 7.5 0 1 0 -15 0zM700.44 2346.34 a7.5 7.5 0 1 0 15 0 a7.5 7.5 0 1 0 -15 0zM765.39 2683.84 a7.5 7.5 0 1 0 15 0 a7.5 7.5 0 1 0 -15 0zM765.39 2758.84 a7.5 7.5 0 1 0 15 0 a7.5 7.5 0 1 0 -15 0zM700.44 2796.34 a7.5 7.5 0 1 0 15 0 a7.5 7.5 0 1 0 -15 0zM700.44 2871.34 a7.5 7.5 0 1 0 15 0 a7.5 7.5 0 1 0 -15 0zM765.39 2908.84 a7.5 7.5 0 1 0 15 0 a7.5 7.5 0 1 0 -15 0zM765.39 2983.84 a7.5 7.5 0 1 0 15 0 a7.5 7.5 0 1 0 -15 0zM700.44 3021.34 a7.5 7.5 0 1 0 15 0 a7.5 7.5 0 1 0 -15 0zM700.44 3096.34 a7.5 7.5 0 1 0 15 0 a7.5 7.5 0 1 0 -15 0zM765.39 3133.84 a7.5 7.5 0 1 0 15 0 a7.5 7.5 0 1 0 -15 0zM765.39 3208.84 a7.5 7.5 0 1 0 15 0 a7.5 7.5 0 1 0 -15 0zM700.44 3246.34 a7.5 7.5 0 1 0 15 0 a7.5 7.5 0 1 0 -15 0zM635.48 3208.84 a7.5 7.5 0 1 0 15 0 a7.5 7.5 0 1 0 -15 0zM635.48 3133.84 a7.5 7.5 0 1 0 15 0 a7.5 7.5 0 1 0 -15 0zM830.35 3246.34 a7.5 7.5 0 1 0 15 0 a7.5 7.5 0 1 0 -15 0zM830.35 3321.34 a7.5 7.5 0 1 0 15 0 a7.5 7.5 0 1 0 -15 0zM765.39 3358.84 a7.5 7.5 0 1 0 15 0 a7.5 7.5 0 1 0 -15 0zM700.44 3321.34 a7.5 7.5 0 1 0 15 0 a7.5 7.5 0 1 0 -15 0zM765.39 3433.84 a7.5 7.5 0 1 0 15 0 a7.5 7.5 0 1 0 -15 0zM635.48 3358.84 a7.5 7.5 0 1 0 15 0 a7.5 7.5 0 1 0 -15 0zM830.34 -53.66 a7.5 7.5 0 1 0 15 0 a7.5 7.5 0 1 0 -15 0zM895.3 -16.16 a7.5 7.5 0 1 0 15 0 a7.5 7.5 0 1 0 -15 0zM895.3 58.84 a7.5 7.5 0 1 0 15 0 a7.5 7.5 0 1 0 -15 0zM830.34 96.34 a7.5 7.5 0 1 0 15 0 a7.5 7.5 0 1 0 -15 0zM895.3 508.84 a7.5 7.5 0 1 0 15 0 a7.5 7.5 0 1 0 -15 0zM960.25 546.34 a7.5 7.5 0 1 0 15 0 a7.5 7.5 0 1 0 -15 0zM960.25 621.34 a7.5 7.5 0 1 0 15 0 a7.5 7.5 0 1 0 -15 0zM895.3 658.84 a7.5 7.5 0 1 0 15 0 a7.5 7.5 0 1 0 -15 0zM830.34 621.34 a7.5 7.5 0 1 0 15 0 a7.5 7.5 0 1 0 -15 0zM830.34 546.34 a7.5 7.5 0 1 0 15 0 a7.5 7.5 0 1 0 -15 0zM895.3 733.84 a7.5 7.5 0 1 0 15 0 a7.5 7.5 0 1 0 -15 0zM830.34 771.34 a7.5 7.5 0 1 0 15 0 a7.5 7.5 0 1 0 -15 0zM960.25 771.34 a7.5 7.5 0 1 0 15 0 a7.5 7.5 0 1 0 -15 0zM960.25 846.34 a7.5 7.5 0 1 0 15 0 a7.5 7.5 0 1 0 -15 0zM895.3 883.84 a7.5 7.5 0 1 0 15 0 a7.5 7.5 0 1 0 -15 0zM830.34 846.34 a7.5 7.5 0 1 0 15 0 a7.5 7.5 0 1 0 -15 0zM895.3 958.84 a7.5 7.5 0 1 0 15 0 a7.5 7.5 0 1 0 -15 0zM830.34 996.34 a7.5 7.5 0 1 0 15 0 a7.5 7.5 0 1 0 -15 0zM765.39 883.84 a7.5 7.5 0 1 0 15 0 a7.5 7.5 0 1 0 -15 0zM960.25 996.34 a7.5 7.5 0 1 0 15 0 a7.5 7.5 0 1 0 -15 0zM960.25 1071.34 a7.5 7.5 0 1 0 15 0 a7.5 7.5 0 1 0 -15 0zM895.3 1108.84 a7.5 7.5 0 1 0 15 0 a7.5 7.5 0 1 0 -15 0zM830.34 1071.34 a7.5 7.5 0 1 0 15 0 a7.5 7.5 0 1 0 -15 0zM895.3 1183.84 a7.5 7.5 0 1 0 15 0 a7.5 7.5 0 1 0 -15 0zM830.34 1221.34 a7.5 7.5 0 1 0 15 0 a7.5 7.5 0 1 0 -15 0zM895.3 1408.84 a7.5 7.5 0 1 0 15 0 a7.5 7.5 0 1 0 -15 0zM960.25 1446.34 a7.5 7.5 0 1 0 15 0 a7.5 7.5 0 1 0 -15 0zM960.25 1521.34 a7.5 7.5 0 1 0 15 0 a7.5 7.5 0 1 0 -15 0zM895.3 1558.84 a7.5 7.5 0 1 0 15 0 a7.5 7.5 0 1 0 -15 0zM830.34 1521.34 a7.5 7.5 0 1 0 15 0 a7.5 7.5 0 1 0 -15 0zM830.34 1446.34 a7.5 7.5 0 1 0 15 0 a7.5 7.5 0 1 0 -15 0zM895.3 1633.84 a7.5 7.5 0 1 0 15 0 a7.5 7.5 0 1 0 -15 0zM960.25 1671.34 a7.5 7.5 0 1 0 15 0 a7.5 7.5 0 1 0 -15 0zM960.25 1746.34 a7.5 7.5 0 1 0 15 0 a7.5 7.5 0 1 0 -15 0zM895.3 1783.84 a7.5 7.5 0 1 0 15 0 a7.5 7.5 0 1 0 -15 0zM830.34 1746.34 a7.5 7.5 0 1 0 15 0 a7.5 7.5 0 1 0 -15 0zM830.34 1671.34 a7.5 7.5 0 1 0 15 0 a7.5 7.5 0 1 0 -15 0zM895.3 1858.84 a7.5 7.5 0 1 0 15 0 a7.5 7.5 0 1 0 -15 0zM830.34 1896.34 a7.5 7.5 0 1 0 15 0 a7.5 7.5 0 1 0 -15 0zM765.39 1858.84 a7.5 7.5 0 1 0 15 0 a7.5 7.5 0 1 0 -15 0zM895.3 2083.84 a7.5 7.5 0 1 0 15 0 a7.5 7.5 0 1 0 -15 0zM960.25 2121.34 a7.5 7.5 0 1 0 15 0 a7.5 7.5 0 1 0 -15 0zM960.25 2196.34 a7.5 7.5 0 1 0 15 0 a7.5 7.5 0 1 0 -15 0zM895.3 2233.84 a7.5 7.5 0 1 0 15 0 a7.5 7.5 0 1 0 -15 0zM830.34 2196.34 a7.5 7.5 0 1 0 15 0 a7.5 7.5 0 1 0 -15 0zM830.34 2121.34 a7.5 7.5 0 1 0 15 0 a7.5 7.5 0 1 0 -15 0zM895.3 2533.84 a7.5 7.5 0 1 0 15 0 a7.5 7.5 0 1 0 -15 0zM960.25 2571.34 a7.5 7.5 0 1 0 15 0 a7.5 7.5 0 1 0 -15 0zM960.25 2646.34 a7.5 7.5 0 1 0 15 0 a7.5 7.5 0 1 0 -15 0zM895.3 2683.84 a7.5 7.5 0 1 0 15 0 a7.5 7.5 0 1 0 -15 0zM830.34 2646.34 a7.5 7.5 0 1 0 15 0 a7.5 7.5 0 1 0 -15 0zM830.34 2571.34 a7.5 7.5 0 1 0 15 0 a7.5 7.5 0 1 0 -15 0zM895.3 2758.84 a7.5 7.5 0 1 0 15 0 a7.5 7.5 0 1 0 -15 0zM830.34 2796.34 a7.5 7.5 0 1 0 15 0 a7.5 7.5 0 1 0 -15 0zM830.34 2871.34 a7.5 7.5 0 1 0 15 0 a7.5 7.5 0 1 0 -15 0zM895.3 2908.84 a7.5 7.5 0 1 0 15 0 a7.5 7.5 0 1 0 -15 0zM895.3 2983.84 a7.5 7.5 0 1 0 15 0 a7.5 7.5 0 1 0 -15 0zM830.34 3021.34 a7.5 7.5 0 1 0 15 0 a7.5 7.5 0 1 0 -15 0zM960.25 3021.34 a7.5 7.5 0 1 0 15 0 a7.5 7.5 0 1 0 -15 0zM960.25 3096.34 a7.5 7.5 0 1 0 15 0 a7.5 7.5 0 1 0 -15 0zM895.3 3133.84 a7.5 7.5 0 1 0 15 0 a7.5 7.5 0 1 0 -15 0zM830.34 3096.34 a7.5 7.5 0 1 0 15 0 a7.5 7.5 0 1 0 -15 0zM895.3 3208.84 a7.5 7.5 0 1 0 15 0 a7.5 7.5 0 1 0 -15 0zM960.25 3246.34 a7.5 7.5 0 1 0 15 0 a7.5 7.5 0 1 0 -15 0zM960.25 3321.34 a7.5 7.5 0 1 0 15 0 a7.5 7.5 0 1 0 -15 0zM895.3 3358.84 a7.5 7.5 0 1 0 15 0 a7.5 7.5 0 1 0 -15 0zM830.34 3321.34 a7.5 7.5 0 1 0 15 0 a7.5 7.5 0 1 0 -15 0zM830.34 3246.34 a7.5 7.5 0 1 0 15 0 a7.5 7.5 0 1 0 -15 0zM895.3 3433.84 a7.5 7.5 0 1 0 15 0 a7.5 7.5 0 1 0 -15 0zM830.34 3471.34 a7.5 7.5 0 1 0 15 0 a7.5 7.5 0 1 0 -15 0zM960.25 -53.66 a7.5 7.5 0 1 0 15 0 a7.5 7.5 0 1 0 -15 0zM1025.21 -16.16 a7.5 7.5 0 1 0 15 0 a7.5 7.5 0 1 0 -15 0zM1025.21 58.84 a7.5 7.5 0 1 0 15 0 a7.5 7.5 0 1 0 -15 0zM960.25 96.34 a7.5 7.5 0 1 0 15 0 a7.5 7.5 0 1 0 -15 0zM1025.21 283.84 a7.5 7.5 0 1 0 15 0 a7.5 7.5 0 1 0 -15 0zM1090.16 321.34 a7.5 7.5 0 1 0 15 0 a7.5 7.5 0 1 0 -15 0zM1090.16 396.34 a7.5 7.5 0 1 0 15 0 a7.5 7.5 0 1 0 -15 0zM1025.21 433.84 a7.5 7.5 0 1 0 15 0 a7.5 7.5 0 1 0 -15 0zM960.25 396.34 a7.5 7.5 0 1 0 15 0 a7.5 7.5 0 1 0 -15 0zM960.25 321.34 a7.5 7.5 0 1 0 15 0 a7.5 7.5 0 1 0 -15 0zM1025.21 508.84 a7.5 7.5 0 1 0 15 0 a7.5 7.5 0 1 0 -15 0zM1090.16 546.34 a7.5 7.5 0 1 0 15 0 a7.5 7.5 0 1 0 -15 0zM1090.16 621.34 a7.5 7.5 0 1 0 15 0 a7.5 7.5 0 1 0 -15 0zM1025.21 658.84 a7.5 7.5 0 1 0 15 0 a7.5 7.5 0 1 0 -15 0zM1025.21 733.84 a7.5 7.5 0 1 0 15 0 a7.5 7.5 0 1 0 -15 0zM1090.16 771.34 a7.5 7.5 0 1 0 15 0 a7.5 7.5 0 1 0 -15 0zM1090.16 846.34 a7.5 7.5 0 1 0 15 0 a7.5 7.5 0 1 0 -15 0zM1025.21 883.84 a7.5 7.5 0 1 0 15 0 a7.5 7.5 0 1 0 -15 0zM1025.21 1108.84 a7.5 7.5 0 1 0 15 0 a7.5 7.5 0 1 0 -15 0zM1025.21 1183.84 a7.5 7.5 0 1 0 15 0 a7.5 7.5 0 1 0 -15 0zM960.25 1221.34 a7.5 7.5 0 1 0 15 0 a7.5 7.5 0 1 0 -15 0zM1025.21 1408.84 a7.5 7.5 0 1 0 15 0 a7.5 7.5 0 1 0 -15 0zM1090.16 1446.34 a7.5 7.5 0 1 0 15 0 a7.5 7.5 0 1 0 -15 0zM1090.16 1521.34 a7.5 7.5 0 1 0 15 0 a7.5 7.5 0 1 0 -15 0zM1025.21 1558.84 a7.5 7.5 0 1 0 15 0 a7.5 7.5 0 1 0 -15 0zM1025.21 1783.84 a7.5 7.5 0 1 0 15 0 a7.5 7.5 0 1 0 -15 0zM1025.21 1858.84 a7.5 7.5 0 1 0 15 0 a7.5 7.5 0 1 0 -15 0zM960.25 1896.34 a7.5 7.5 0 1 0 15 0 a7.5 7.5 0 1 0 -15 0zM1025.21 2083.84 a7.5 7.5 0 1 0 15 0 a7.5 7.5 0 1 0 -15 0zM1090.16 2121.34 a7.5 7.5 0 1 0 15 0 a7.5 7.5 0 1 0 -15 0zM1090.16 2196.34 a7.5 7.5 0 1 0 15 0 a7.5 7.5 0 1 0 -15 0zM1025.21 2233.84 a7.5 7.5 0 1 0 15 0 a7.5 7.5 0 1 0 -15 0zM1025.21 2308.84 a7.5 7.5 0 1 0 15 0 a7.5 7.5 0 1 0 -15 0zM960.25 2346.34 a7.5 7.5 0 1 0 15 0 a7.5 7.5 0 1 0 -15 0zM895.3 2308.84 a7.5 7.5 0 1 0 15 0 a7.5 7.5 0 1 0 -15 0zM1090.16 2346.34 a7.5 7.5 0 1 0 15 0 a7.5 7.5 0 1 0 -15 0zM1090.16 2421.34 a7.5 7.5 0 1 0 15 0 a7.5 7.5 0 1 0 -15 0zM1025.21 2458.84 a7.5 7.5 0 1 0 15 0 a7.5 7.5 0 1 0 -15 0zM960.25 2421.34 a7.5 7.5 0 1 0 15 0 a7.5 7.5 0 1 0 -15 0zM1025.21 2758.84 a7.5 7.5 0 1 0 15 0 a7.5 7.5 0 1 0 -15 0zM1090.16 2796.34 a7.5 7.5 0 1 0 15 0 a7.5 7.5 0 1 0 -15 0zM1090.16 2871.34 a7.5 7.5 0 1 0 15 0 a7.5 7.5 0 1 0 -15 0zM1025.21 2908.84 a7.5 7.5 0 1 0 15 0 a7.5 7.5 0 1 0 -15 0zM960.25 2871.34 a7.5 7.5 0 1 0 15 0 a7.5 7.5 0 1 0 -15 0zM960.25 2796.34 a7.5 7.5 0 1 0 15 0 a7.5 7.5 0 1 0 -15 0zM1025.21 2983.84 a7.5 7.5 0 1 0 15 0 a7.5 7.5 0 1 0 -15 0zM1090.16 3021.34 a7.5 7.5 0 1 0 15 0 a7.5 7.5 0 1 0 -15 0zM1090.16 3096.34 a7.5 7.5 0 1 0 15 0 a7.5 7.5 0 1 0 -15 0zM1025.21 3133.84 a7.5 7.5 0 1 0 15 0 a7.5 7.5 0 1 0 -15 0zM1025.21 3208.84 a7.5 7.5 0 1 0 15 0 a7.5 7.5 0 1 0 -15 0zM1090.16 3246.34 a7.5 7.5 0 1 0 15 0 a7.5 7.5 0 1 0 -15 0zM1090.16 3321.34 a7.5 7.5 0 1 0 15 0 a7.5 7.5 0 1 0 -15 0zM1025.21 3358.84 a7.5 7.5 0 1 0 15 0 a7.5 7.5 0 1 0 -15 0zM1025.21 3433.84 a7.5 7.5 0 1 0 15 0 a7.5 7.5 0 1 0 -15 0zM960.25 3471.34 a7.5 7.5 0 1 0 15 0 a7.5 7.5 0 1 0 -15 0zM1090.16 3471.34 a7.5 7.5 0 1 0 15 0 a7.5 7.5 0 1 0 -15 0zM1090.16 3546.34 a7.5 7.5 0 1 0 15 0 a7.5 7.5 0 1 0 -15 0zM1025.21 3583.84 a7.5 7.5 0 1 0 15 0 a7.5 7.5 0 1 0 -15 0zM960.25 3546.34 a7.5 7.5 0 1 0 15 0 a7.5 7.5 0 1 0 -15 0zM1025.21 3658.84 a7.5 7.5 0 1 0 15 0 a7.5 7.5 0 1 0 -15 0zM960.25 3696.34 a7.5 7.5 0 1 0 15 0 a7.5 7.5 0 1 0 -15 0zM895.3 3658.84 a7.5 7.5 0 1 0 15 0 a7.5 7.5 0 1 0 -15 0zM895.3 3583.84 a7.5 7.5 0 1 0 15 0 a7.5 7.5 0 1 0 -15 0zM1090.16 -53.66 a7.5 7.5 0 1 0 15 0 a7.5 7.5 0 1 0 -15 0zM1155.11 -16.16 a7.5 7.5 0 1 0 15 0 a7.5 7.5 0 1 0 -15 0zM1155.11 58.84 a7.5 7.5 0 1 0 15 0 a7.5 7.5 0 1 0 -15 0zM1090.16 96.34 a7.5 7.5 0 1 0 15 0 a7.5 7.5 0 1 0 -15 0zM1220.07 96.34 a7.5 7.5 0 1 0 15 0 a7.5 7.5 0 1 0 -15 0zM1220.07 171.34 a7.5 7.5 0 1 0 15 0 a7.5 7.5 0 1 0 -15 0zM1155.11 208.84 a7.5 7.5 0 1 0 15 0 a7.5 7.5 0 1 0 -15 0zM1090.16 171.34 a7.5 7.5 0 1 0 15 0 a7.5 7.5 0 1 0 -15 0zM1155.11 283.84 a7.5 7.5 0 1 0 15 0 a7.5 7.5 0 1 0 -15 0zM1220.07 321.34 a7.5 7.5 0 1 0 15 0 a7.5 7.5 0 1 0 -15 0zM1220.07 396.34 a7.5 7.5 0 1 0 15 0 a7.5 7.5 0 1 0 -15 0zM1155.11 433.84 a7.5 7.5 0 1 0 15 0 a7.5 7.5 0 1 0 -15 0zM1155.11 508.84 a7.5 7.5 0 1 0 15 0 a7.5 7.5 0 1 0 -15 0zM1220.07 546.34 a7.5 7.5 0 1 0 15 0 a7.5 7.5 0 1 0 -15 0zM1220.07 621.34 a7.5 7.5 0 1 0 15 0 a7.5 7.5 0 1 0 -15 0zM1155.11 658.84 a7.5 7.5 0 1 0 15 0 a7.5 7.5 0 1 0 -15 0zM1155.11 883.84 a7.5 7.5 0 1 0 15 0 a7.5 7.5 0 1 0 -15 0zM1155.11 958.84 a7.5 7.5 0 1 0 15 0 a7.5 7.5 0 1 0 -15 0zM1090.16 996.34 a7.5 7.5 0 1 0 15 0 a7.5 7.5 0 1 0 -15 0zM1025.21 958.84 a7.5 7.5 0 1 0 15 0 a7.5 7.5 0 1 0 -15 0zM1220.07 996.34 a7.5 7.5 0 1 0 15 0 a7.5 7.5 0 1 0 -15 0zM1220.07 1071.34 a7.5 7.5 0 1 0 15 0 a7.5 7.5 0 1 0 -15 0zM1155.11 1108.84 a7.5 7.5 0 1 0 15 0 a7.5 7.5 0 1 0 -15 0zM1090.16 1071.34 a7.5 7.5 0 1 0 15 0 a7.5 7.5 0 1 0 -15 0zM1155.11 1633.84 a7.5 7.5 0 1 0 15 0 a7.5 7.5 0 1 0 -15 0zM1220.07 1671.34 a7.5 7.5 0 1 0 15 0 a7.5 7.5 0 1 0 -15 0zM1220.07 1746.34 a7.5 7.5 0 1 0 15 0 a7.5 7.5 0 1 0 -15 0zM1155.11 1783.84 a7.5 7.5 0 1 0 15 0 a7.5 7.5 0 1 0 -15 0zM1090.16 1746.34 a7.5 7.5 0 1 0 15 0 a7.5 7.5 0 1 0 -15 0zM1090.16 1671.34 a7.5 7.5 0 1 0 15 0 a7.5 7.5 0 1 0 -15 0zM1155.11 1858.84 a7.5 7.5 0 1 0 15 0 a7.5 7.5 0 1 0 -15 0zM1220.07 1896.34 a7.5 7.5 0 1 0 15 0 a7.5 7.5 0 1 0 -15 0zM1220.07 1971.34 a7.5 7.5 0 1 0 15 0 a7.5 7.5 0 1 0 -15 0zM1155.11 2008.84 a7.5 7.5 0 1 0 15 0 a7.5 7.5 0 1 0 -15 0zM1090.16 1971.34 a7.5 7.5 0 1 0 15 0 a7.5 7.5 0 1 0 -15 0zM1090.16 1896.34 a7.5 7.5 0 1 0 15 0 a7.5 7.5 0 1 0 -15 0zM1155.11 3433.84 a7.5 7.5 0 1 0 15 0 a7.5 7.5 0 1 0 -15 0zM1220.07 3471.34 a7.5 7.5 0 1 0 15 0 a7.5 7.5 0 1 0 -15 0zM1220.07 3546.34 a7.5 7.5 0 1 0 15 0 a7.5 7.5 0 1 0 -15 0zM1155.11 3583.84 a7.5 7.5 0 1 0 15 0 a7.5 7.5 0 1 0 -15 0zM1155.11 3658.84 a7.5 7.5 0 1 0 15 0 a7.5 7.5 0 1 0 -15 0zM1090.16 3696.34 a7.5 7.5 0 1 0 15 0 a7.5 7.5 0 1 0 -15 0zM1155.11 3883.84 a7.5 7.5 0 1 0 15 0 a7.5 7.5 0 1 0 -15 0zM1220.07 3921.34 a7.5 7.5 0 1 0 15 0 a7.5 7.5 0 1 0 -15 0zM1220.07 3996.34 a7.5 7.5 0 1 0 15 0 a7.5 7.5 0 1 0 -15 0zM1155.11 4033.84 a7.5 7.5 0 1 0 15 0 a7.5 7.5 0 1 0 -15 0zM1090.16 3996.34 a7.5 7.5 0 1 0 15 0 a7.5 7.5 0 1 0 -15 0zM1090.16 3921.34 a7.5 7.5 0 1 0 15 0 a7.5 7.5 0 1 0 -15 0zM1155.11 4108.84 a7.5 7.5 0 1 0 15 0 a7.5 7.5 0 1 0 -15 0zM1090.16 4146.34 a7.5 7.5 0 1 0 15 0 a7.5 7.5 0 1 0 -15 0zM1025.21 4108.84 a7.5 7.5 0 1 0 15 0 a7.5 7.5 0 1 0 -15 0zM1025.21 4033.84 a7.5 7.5 0 1 0 15 0 a7.5 7.5 0 1 0 -15 0zM1285.02 58.84 a7.5 7.5 0 1 0 15 0 a7.5 7.5 0 1 0 -15 0zM1349.97 96.34 a7.5 7.5 0 1 0 15 0 a7.5 7.5 0 1 0 -15 0zM1349.97 171.34 a7.5 7.5 0 1 0 15 0 a7.5 7.5 0 1 0 -15 0zM1285.02 208.84 a7.5 7.5 0 1 0 15 0 a7.5 7.5 0 1 0 -15 0zM1285.02 283.84 a7.5 7.5 0 1 0 15 0 a7.5 7.5 0 1 0 -15 0zM1285.02 658.84 a7.5 7.5 0 1 0 15 0 a7.5 7.5 0 1 0 -15 0zM1285.02 733.84 a7.5 7.5 0 1 0 15 0 a7.5 7.5 0 1 0 -15 0zM1220.07 771.34 a7.5 7.5 0 1 0 15 0 a7.5 7.5 0 1 0 -15 0zM1155.11 733.84 a7.5 7.5 0 1 0 15 0 a7.5 7.5 0 1 0 -15 0zM1220.07 846.34 a7.5 7.5 0 1 0 15 0 a7.5 7.5 0 1 0 -15 0zM1285.02 883.84 a7.5 7.5 0 1 0 15 0 a7.5 7.5 0 1 0 -15 0zM1285.02 958.84 a7.5 7.5 0 1 0 15 0 a7.5 7.5 0 1 0 -15 0zM1285.02 1408.84 a7.5 7.5 0 1 0 15 0 a7.5 7.5 0 1 0 -15 0zM1349.97 1446.34 a7.5 7.5 0 1 0 15 0 a7.5 7.5 0 1 0 -15 0zM1349.97 1521.34 a7.5 7.5 0 1 0 15 0 a7.5 7.5 0 1 0 -15 0zM1285.02 1558.84 a7.5 7.5 0 1 0 15 0 a7.5 7.5 0 1 0 -15 0zM1220.07 1521.34 a7.5 7.5 0 1 0 15 0 a7.5 7.5 0 1 0 -15 0zM1220.07 1446.34 a7.5 7.5 0 1 0 15 0 a7.5 7.5 0 1 0 -15 0zM1285.02 1633.84 a7.5 7.5 0 1 0 15 0 a7.5 7.5 0 1 0 -15 0zM1349.97 1671.34 a7.5 7.5 0 1 0 15 0 a7.5 7.5 0 1 0 -15 0zM1349.97 1746.34 a7.5 7.5 0 1 0 15 0 a7.5 7.5 0 1 0 -15 0zM1285.02 1783.84 a7.5 7.5 0 1 0 15 0 a7.5 7.5 0 1 0 -15 0zM1285.02 2008.84 a7.5 7.5 0 1 0 15 0 a7.5 7.5 0 1 0 -15 0zM1285.02 2083.84 a7.5 7.5 0 1 0 15 0 a7.5 7.5 0 1 0 -15 0zM1220.07 2121.34 a7.5 7.5 0 1 0 15 0 a7.5 7.5 0 1 0 -15 0zM1155.11 2083.84 a7.5 7.5 0 1 0 15 0 a7.5 7.5 0 1 0 -15 0zM1349.97 2121.34 a7.5 7.5 0 1 0 15 0 a7.5 7.5 0 1 0 -15 0zM1349.97 2196.34 a7.5 7.5 0 1 0 15 0 a7.5 7.5 0 1 0 -15 0zM1285.02 2233.84 a7.5 7.5 0 1 0 15 0 a7.5 7.5 0 1 0 -15 0zM1220.07 2196.34 a7.5 7.5 0 1 0 15 0 a7.5 7.5 0 1 0 -15 0zM1285.02 2533.84 a7.5 7.5 0 1 0 15 0 a7.5 7.5 0 1 0 -15 0zM1349.97 2571.34 a7.5 7.5 0 1 0 15 0 a7.5 7.5 0 1 0 -15 0zM1349.97 2646.34 a7.5 7.5 0 1 0 15 0 a7.5 7.5 0 1 0 -15 0zM1285.02 2683.84 a7.5 7.5 0 1 0 15 0 a7.5 7.5 0 1 0 -15 0zM1220.07 2646.34 a7.5 7.5 0 1 0 15 0 a7.5 7.5 0 1 0 -15 0zM1220.07 2571.34 a7.5 7.5 0 1 0 15 0 a7.5 7.5 0 1 0 -15 0zM1285.02 2758.84 a7.5 7.5 0 1 0 15 0 a7.5 7.5 0 1 0 -15 0zM1220.07 2796.34 a7.5 7.5 0 1 0 15 0 a7.5 7.5 0 1 0 -15 0zM1155.11 2758.84 a7.5 7.5 0 1 0 15 0 a7.5 7.5 0 1 0 -15 0zM1155.11 2683.84 a7.5 7.5 0 1 0 15 0 a7.5 7.5 0 1 0 -15 0zM1349.97 2796.34 a7.5 7.5 0 1 0 15 0 a7.5 7.5 0 1 0 -15 0zM1349.97 2871.34 a7.5 7.5 0 1 0 15 0 a7.5 7.5 0 1 0 -15 0zM1285.02 2908.84 a7.5 7.5 0 1 0 15 0 a7.5 7.5 0 1 0 -15 0zM1220.07 2871.34 a7.5 7.5 0 1 0 15 0 a7.5 7.5 0 1 0 -15 0zM1285.02 2983.84 a7.5 7.5 0 1 0 15 0 a7.5 7.5 0 1 0 -15 0zM1349.97 3021.34 a7.5 7.5 0 1 0 15 0 a7.5 7.5 0 1 0 -15 0zM1349.97 3096.34 a7.5 7.5 0 1 0 15 0 a7.5 7.5 0 1 0 -15 0zM1285.02 3133.84 a7.5 7.5 0 1 0 15 0 a7.5 7.5 0 1 0 -15 0zM1220.07 3096.34 a7.5 7.5 0 1 0 15 0 a7.5 7.5 0 1 0 -15 0zM1220.07 3021.34 a7.5 7.5 0 1 0 15 0 a7.5 7.5 0 1 0 -15 0zM1285.02 3208.84 a7.5 7.5 0 1 0 15 0 a7.5 7.5 0 1 0 -15 0zM1220.07 3246.34 a7.5 7.5 0 1 0 15 0 a7.5 7.5 0 1 0 -15 0zM1155.11 3208.84 a7.5 7.5 0 1 0 15 0 a7.5 7.5 0 1 0 -15 0zM1155.11 3133.84 a7.5 7.5 0 1 0 15 0 a7.5 7.5 0 1 0 -15 0zM1349.97 3246.34 a7.5 7.5 0 1 0 15 0 a7.5 7.5 0 1 0 -15 0zM1349.97 3321.34 a7.5 7.5 0 1 0 15 0 a7.5 7.5 0 1 0 -15 0zM1285.02 3358.84 a7.5 7.5 0 1 0 15 0 a7.5 7.5 0 1 0 -15 0zM1220.07 3321.34 a7.5 7.5 0 1 0 15 0 a7.5 7.5 0 1 0 -15 0zM1285.02 3433.84 a7.5 7.5 0 1 0 15 0 a7.5 7.5 0 1 0 -15 0zM1349.97 3471.34 a7.5 7.5 0 1 0 15 0 a7.5 7.5 0 1 0 -15 0zM1349.97 3546.34 a7.5 7.5 0 1 0 15 0 a7.5 7.5 0 1 0 -15 0zM1285.02 3583.84 a7.5 7.5 0 1 0 15 0 a7.5 7.5 0 1 0 -15 0zM1285.02 3658.84 a7.5 7.5 0 1 0 15 0 a7.5 7.5 0 1 0 -15 0zM1220.07 3696.34 a7.5 7.5 0 1 0 15 0 a7.5 7.5 0 1 0 -15 0zM1220.07 3771.34 a7.5 7.5 0 1 0 15 0 a7.5 7.5 0 1 0 -15 0zM1285.02 3808.84 a7.5 7.5 0 1 0 15 0 a7.5 7.5 0 1 0 -15 0zM1285.02 3883.84 a7.5 7.5 0 1 0 15 0 a7.5 7.5 0 1 0 -15 0zM1155.11 3808.84 a7.5 7.5 0 1 0 15 0 a7.5 7.5 0 1 0 -15 0zM1414.93 58.84 a7.5 7.5 0 1 0 15 0 a7.5 7.5 0 1 0 -15 0zM1479.88 96.34 a7.5 7.5 0 1 0 15 0 a7.5 7.5 0 1 0 -15 0zM1479.88 171.34 a7.5 7.5 0 1 0 15 0 a7.5 7.5 0 1 0 -15 0zM1414.93 208.84 a7.5 7.5 0 1 0 15 0 a7.5 7.5 0 1 0 -15 0zM1349.98 171.34 a7.5 7.5 0 1 0 15 0 a7.5 7.5 0 1 0 -15 0zM1349.98 96.34 a7.5 7.5 0 1 0 15 0 a7.5 7.5 0 1 0 -15 0zM1349.98 396.34 a7.5 7.5 0 1 0 15 0 a7.5 7.5 0 1 0 -15 0zM1414.93 433.84 a7.5 7.5 0 1 0 15 0 a7.5 7.5 0 1 0 -15 0zM1414.93 508.84 a7.5 7.5 0 1 0 15 0 a7.5 7.5 0 1 0 -15 0zM1349.98 546.34 a7.5 7.5 0 1 0 15 0 a7.5 7.5 0 1 0 -15 0zM1285.02 508.84 a7.5 7.5 0 1 0 15 0 a7.5 7.5 0 1 0 -15 0zM1285.02 433.84 a7.5 7.5 0 1 0 15 0 a7.5 7.5 0 1 0 -15 0zM1479.88 546.34 a7.5 7.5 0 1 0 15 0 a7.5 7.5 0 1 0 -15 0zM1479.88 621.34 a7.5 7.5 0 1 0 15 0 a7.5 7.5 0 1 0 -15 0zM1414.93 658.84 a7.5 7.5 0 1 0 15 0 a7.5 7.5 0 1 0 -15 0zM1349.98 621.34 a7.5 7.5 0 1 0 15 0 a7.5 7.5 0 1 0 -15 0zM1414.93 733.84 a7.5 7.5 0 1 0 15 0 a7.5 7.5 0 1 0 -15 0zM1349.98 771.34 a7.5 7.5 0 1 0 15 0 a7.5 7.5 0 1 0 -15 0zM1349.98 1071.34 a7.5 7.5 0 1 0 15 0 a7.5 7.5 0 1 0 -15 0zM1414.93 1108.84 a7.5 7.5 0 1 0 15 0 a7.5 7.5 0 1 0 -15 0zM1414.93 1183.84 a7.5 7.5 0 1 0 15 0 a7.5 7.5 0 1 0 -15 0zM1349.98 1221.34 a7.5 7.5 0 1 0 15 0 a7.5 7.5 0 1 0 -15 0zM1285.02 1183.84 a7.5 7.5 0 1 0 15 0 a7.5 7.5 0 1 0 -15 0zM1285.02 1108.84 a7.5 7.5 0 1 0 15 0 a7.5 7.5 0 1 0 -15 0zM1479.88 1221.34 a7.5 7.5 0 1 0 15 0 a7.5 7.5 0 1 0 -15 0zM1479.88 1296.34 a7.5 7.5 0 1 0 15 0 a7.5 7.5 0 1 0 -15 0zM1414.93 1333.84 a7.5 7.5 0 1 0 15 0 a7.5 7.5 0 1 0 -15 0zM1349.98 1296.34 a7.5 7.5 0 1 0 15 0 a7.5 7.5 0 1 0 -15 0zM1414.93 1408.84 a7.5 7.5 0 1 0 15 0 a7.5 7.5 0 1 0 -15 0zM1479.88 1446.34 a7.5 7.5 0 1 0 15 0 a7.5 7.5 0 1 0 -15 0zM1479.88 1521.34 a7.5 7.5 0 1 0 15 0 a7.5 7.5 0 1 0 -15 0zM1414.93 1558.84 a7.5 7.5 0 1 0 15 0 a7.5 7.5 0 1 0 -15 0zM1349.98 1521.34 a7.5 7.5 0 1 0 15 0 a7.5 7.5 0 1 0 -15 0zM1349.98 1446.34 a7.5 7.5 0 1 0 15 0 a7.5 7.5 0 1 0 -15 0zM1349.98 2196.34 a7.5 7.5 0 1 0 15 0 a7.5 7.5 0 1 0 -15 0zM1414.93 2233.84 a7.5 7.5 0 1 0 15 0 a7.5 7.5 0 1 0 -15 0zM1414.93 2308.84 a7.5 7.5 0 1 0 15 0 a7.5 7.5 0 1 0 -15 0zM1349.98 2346.34 a7.5 7.5 0 1 0 15 0 a7.5 7.5 0 1 0 -15 0zM1285.02 2308.84 a7.5 7.5 0 1 0 15 0 a7.5 7.5 0 1 0 -15 0zM1349.98 2646.34 a7.5 7.5 0 1 0 15 0 a7.5 7.5 0 1 0 -15 0zM1414.93 2683.84 a7.5 7.5 0 1 0 15 0 a7.5 7.5 0 1 0 -15 0zM1414.93 2758.84 a7.5 7.5 0 1 0 15 0 a7.5 7.5 0 1 0 -15 0zM1349.98 2796.34 a7.5 7.5 0 1 0 15 0 a7.5 7.5 0 1 0 -15 0zM1414.93 2983.84 a7.5 7.5 0 1 0 15 0 a7.5 7.5 0 1 0 -15 0zM1479.88 3021.34 a7.5 7.5 0 1 0 15 0 a7.5 7.5 0 1 0 -15 0zM1479.88 3096.34 a7.5 7.5 0 1 0 15 0 a7.5 7.5 0 1 0 -15 0zM1414.93 3133.84 a7.5 7.5 0 1 0 15 0 a7.5 7.5 0 1 0 -15 0zM1349.98 3096.34 a7.5 7.5 0 1 0 15 0 a7.5 7.5 0 1 0 -15 0zM1349.98 3021.34 a7.5 7.5 0 1 0 15 0 a7.5 7.5 0 1 0 -15 0zM1414.93 3208.84 a7.5 7.5 0 1 0 15 0 a7.5 7.5 0 1 0 -15 0zM1349.98 3246.34 a7.5 7.5 0 1 0 15 0 a7.5 7.5 0 1 0 -15 0zM1544.84 58.84 a7.5 7.5 0 1 0 15 0 a7.5 7.5 0 1 0 -15 0zM1609.79 96.34 a7.5 7.5 0 1 0 15 0 a7.5 7.5 0 1 0 -15 0zM1609.79 171.34 a7.5 7.5 0 1 0 15 0 a7.5 7.5 0 1 0 -15 0zM1544.84 208.84 a7.5 7.5 0 1 0 15 0 a7.5 7.5 0 1 0 -15 0zM1544.84 283.84 a7.5 7.5 0 1 0 15 0 a7.5 7.5 0 1 0 -15 0zM1479.88 321.34 a7.5 7.5 0 1 0 15 0 a7.5 7.5 0 1 0 -15 0zM1414.93 283.84 a7.5 7.5 0 1 0 15 0 a7.5 7.5 0 1 0 -15 0zM1544.84 508.84 a7.5 7.5 0 1 0 15 0 a7.5 7.5 0 1 0 -15 0zM1609.79 546.34 a7.5 7.5 0 1 0 15 0 a7.5 7.5 0 1 0 -15 0zM1609.79 621.34 a7.5 7.5 0 1 0 15 0 a7.5 7.5 0 1 0 -15 0zM1544.84 658.84 a7.5 7.5 0 1 0 15 0 a7.5 7.5 0 1 0 -15 0zM1544.84 733.84 a7.5 7.5 0 1 0 15 0 a7.5 7.5 0 1 0 -15 0zM1479.88 771.34 a7.5 7.5 0 1 0 15 0 a7.5 7.5 0 1 0 -15 0zM1479.88 846.34 a7.5 7.5 0 1 0 15 0 a7.5 7.5 0 1 0 -15 0zM1544.84 883.84 a7.5 7.5 0 1 0 15 0 a7.5 7.5 0 1 0 -15 0zM1544.84 958.84 a7.5 7.5 0 1 0 15 0 a7.5 7.5 0 1 0 -15 0zM1479.88 996.34 a7.5 7.5 0 1 0 15 0 a7.5 7.5 0 1 0 -15 0zM1414.93 958.84 a7.5 7.5 0 1 0 15 0 a7.5 7.5 0 1 0 -15 0zM1414.93 883.84 a7.5 7.5 0 1 0 15 0 a7.5 7.5 0 1 0 -15 0zM1609.79 996.34 a7.5 7.5 0 1 0 15 0 a7.5 7.5 0 1 0 -15 0zM1609.79 1071.34 a7.5 7.5 0 1 0 15 0 a7.5 7.5 0 1 0 -15 0zM1544.84 1108.84 a7.5 7.5 0 1 0 15 0 a7.5 7.5 0 1 0 -15 0zM1479.88 1071.34 a7.5 7.5 0 1 0 15 0 a7.5 7.5 0 1 0 -15 0zM1544.84 1633.84 a7.5 7.5 0 1 0 15 0 a7.5 7.5 0 1 0 -15 0zM1609.79 1671.34 a7.5 7.5 0 1 0 15 0 a7.5 7.5 0 1 0 -15 0zM1609.79 1746.34 a7.5 7.5 0 1 0 15 0 a7.5 7.5 0 1 0 -15 0zM1544.84 1783.84 a7.5 7.5 0 1 0 15 0 a7.5 7.5 0 1 0 -15 0zM1479.88 1746.34 a7.5 7.5 0 1 0 15 0 a7.5 7.5 0 1 0 -15 0zM1479.88 1671.34 a7.5 7.5 0 1 0 15 0 a7.5 7.5 0 1 0 -15 0zM1544.84 1858.84 a7.5 7.5 0 1 0 15 0 a7.5 7.5 0 1 0 -15 0zM1479.88 1896.34 a7.5 7.5 0 1 0 15 0 a7.5 7.5 0 1 0 -15 0zM1414.93 1858.84 a7.5 7.5 0 1 0 15 0 a7.5 7.5 0 1 0 -15 0zM1414.93 1783.84 a7.5 7.5 0 1 0 15 0 a7.5 7.5 0 1 0 -15 0zM1479.88 1971.34 a7.5 7.5 0 1 0 15 0 a7.5 7.5 0 1 0 -15 0zM1544.84 2008.84 a7.5 7.5 0 1 0 15 0 a7.5 7.5 0 1 0 -15 0zM1544.84 2083.84 a7.5 7.5 0 1 0 15 0 a7.5 7.5 0 1 0 -15 0zM1479.88 2121.34 a7.5 7.5 0 1 0 15 0 a7.5 7.5 0 1 0 -15 0zM1414.93 2083.84 a7.5 7.5 0 1 0 15 0 a7.5 7.5 0 1 0 -15 0zM1414.93 2008.84 a7.5 7.5 0 1 0 15 0 a7.5 7.5 0 1 0 -15 0zM1479.88 2196.34 a7.5 7.5 0 1 0 15 0 a7.5 7.5 0 1 0 -15 0zM1544.84 2233.84 a7.5 7.5 0 1 0 15 0 a7.5 7.5 0 1 0 -15 0zM1544.84 2308.84 a7.5 7.5 0 1 0 15 0 a7.5 7.5 0 1 0 -15 0zM1479.88 2346.34 a7.5 7.5 0 1 0 15 0 a7.5 7.5 0 1 0 -15 0zM1544.84 3433.84 a7.5 7.5 0 1 0 15 0 a7.5 7.5 0 1 0 -15 0zM1609.79 3471.34 a7.5 7.5 0 1 0 15 0 a7.5 7.5 0 1 0 -15 0zM1609.79 3546.34 a7.5 7.5 0 1 0 15 0 a7.5 7.5 0 1 0 -15 0zM1544.84 3583.84 a7.5 7.5 0 1 0 15 0 a7.5 7.5 0 1 0 -15 0zM1479.88 3546.34 a7.5 7.5 0 1 0 15 0 a7.5 7.5 0 1 0 -15 0zM1479.88 3471.34 a7.5 7.5 0 1 0 15 0 a7.5 7.5 0 1 0 -15 0zM1544.84 3658.84 a7.5 7.5 0 1 0 15 0 a7.5 7.5 0 1 0 -15 0zM1479.88 3696.34 a7.5 7.5 0 1 0 15 0 a7.5 7.5 0 1 0 -15 0zM1414.93 3658.84 a7.5 7.5 0 1 0 15 0 a7.5 7.5 0 1 0 -15 0zM1414.93 3583.84 a7.5 7.5 0 1 0 15 0 a7.5 7.5 0 1 0 -15 0zM1609.79 3696.34 a7.5 7.5 0 1 0 15 0 a7.5 7.5 0 1 0 -15 0zM1609.79 3771.34 a7.5 7.5 0 1 0 15 0 a7.5 7.5 0 1 0 -15 0zM1544.84 3808.84 a7.5 7.5 0 1 0 15 0 a7.5 7.5 0 1 0 -15 0zM1479.88 3771.34 a7.5 7.5 0 1 0 15 0 a7.5 7.5 0 1 0 -15 0zM1609.79 396.34 a7.5 7.5 0 1 0 15 0 a7.5 7.5 0 1 0 -15 0zM1674.74 433.84 a7.5 7.5 0 1 0 15 0 a7.5 7.5 0 1 0 -15 0zM1674.74 508.84 a7.5 7.5 0 1 0 15 0 a7.5 7.5 0 1 0 -15 0zM1544.84 433.84 a7.5 7.5 0 1 0 15 0 a7.5 7.5 0 1 0 -15 0zM1674.74 733.84 a7.5 7.5 0 1 0 15 0 a7.5 7.5 0 1 0 -15 0zM1739.7 771.34 a7.5 7.5 0 1 0 15 0 a7.5 7.5 0 1 0 -15 0zM1739.7 846.34 a7.5 7.5 0 1 0 15 0 a7.5 7.5 0 1 0 -15 0zM1674.74 883.84 a7.5 7.5 0 1 0 15 0 a7.5 7.5 0 1 0 -15 0zM1609.79 846.34 a7.5 7.5 0 1 0 15 0 a7.5 7.5 0 1 0 -15 0zM1609.79 771.34 a7.5 7.5 0 1 0 15 0 a7.5 7.5 0 1 0 -15 0zM1674.74 958.84 a7.5 7.5 0 1 0 15 0 a7.5 7.5 0 1 0 -15 0zM1739.7 996.34 a7.5 7.5 0 1 0 15 0 a7.5 7.5 0 1 0 -15 0zM1739.7 1071.34 a7.5 7.5 0 1 0 15 0 a7.5 7.5 0 1 0 -15 0zM1674.74 1108.84 a7.5 7.5 0 1 0 15 0 a7.5 7.5 0 1 0 -15 0zM1674.74 1183.84 a7.5 7.5 0 1 0 15 0 a7.5 7.5 0 1 0 -15 0zM1609.79 1221.34 a7.5 7.5 0 1 0 15 0 a7.5 7.5 0 1 0 -15 0zM1544.84 1183.84 a7.5 7.5 0 1 0 15 0 a7.5 7.5 0 1 0 -15 0zM1609.79 1296.34 a7.5 7.5 0 1 0 15 0 a7.5 7.5 0 1 0 -15 0zM1674.74 1333.84 a7.5 7.5 0 1 0 15 0 a7.5 7.5 0 1 0 -15 0zM1674.74 1408.84 a7.5 7.5 0 1 0 15 0 a7.5 7.5 0 1 0 -15 0zM1609.79 1446.34 a7.5 7.5 0 1 0 15 0 a7.5 7.5 0 1 0 -15 0zM1544.84 1408.84 a7.5 7.5 0 1 0 15 0 a7.5 7.5 0 1 0 -15 0zM1544.84 1333.84 a7.5 7.5 0 1 0 15 0 a7.5 7.5 0 1 0 -15 0zM1674.74 2308.84 a7.5 7.5 0 1 0 15 0 a7.5 7.5 0 1 0 -15 0zM1739.7 2346.34 a7.5 7.5 0 1 0 15 0 a7.5 7.5 0 1 0 -15 0zM1739.7 2421.34 a7.5 7.5 0 1 0 15 0 a7.5 7.5 0 1 0 -15 0zM1674.74 2458.84 a7.5 7.5 0 1 0 15 0 a7.5 7.5 0 1 0 -15 0zM1609.79 2421.34 a7.5 7.5 0 1 0 15 0 a7.5 7.5 0 1 0 -15 0zM1609.79 2346.34 a7.5 7.5 0 1 0 15 0 a7.5 7.5 0 1 0 -15 0zM1674.74 2533.84 a7.5 7.5 0 1 0 15 0 a7.5 7.5 0 1 0 -15 0zM1609.79 2571.34 a7.5 7.5 0 1 0 15 0 a7.5 7.5 0 1 0 -15 0zM1544.84 2533.84 a7.5 7.5 0 1 0 15 0 a7.5 7.5 0 1 0 -15 0zM1544.84 2458.84 a7.5 7.5 0 1 0 15 0 a7.5 7.5 0 1 0 -15 0zM1674.74 2758.84 a7.5 7.5 0 1 0 15 0 a7.5 7.5 0 1 0 -15 0zM1739.7 2796.34 a7.5 7.5 0 1 0 15 0 a7.5 7.5 0 1 0 -15 0zM1739.7 2871.34 a7.5 7.5 0 1 0 15 0 a7.5 7.5 0 1 0 -15 0zM1674.74 2908.84 a7.5 7.5 0 1 0 15 0 a7.5 7.5 0 1 0 -15 0zM1609.79 2871.34 a7.5 7.5 0 1 0 15 0 a7.5 7.5 0 1 0 -15 0zM1609.79 2796.34 a7.5 7.5 0 1 0 15 0 a7.5 7.5 0 1 0 -15 0zM1674.74 3583.84 a7.5 7.5 0 1 0 15 0 a7.5 7.5 0 1 0 -15 0zM1674.74 3658.84 a7.5 7.5 0 1 0 15 0 a7.5 7.5 0 1 0 -15 0zM1674.74 3808.84 a7.5 7.5 0 1 0 15 0 a7.5 7.5 0 1 0 -15 0zM1674.74 3883.84 a7.5 7.5 0 1 0 15 0 a7.5 7.5 0 1 0 -15 0zM1609.79 3921.34 a7.5 7.5 0 1 0 15 0 a7.5 7.5 0 1 0 -15 0zM1544.84 3883.84 a7.5 7.5 0 1 0 15 0 a7.5 7.5 0 1 0 -15 0zM1804.65 283.84 a7.5 7.5 0 1 0 15 0 a7.5 7.5 0 1 0 -15 0zM1869.6 321.34 a7.5 7.5 0 1 0 15 0 a7.5 7.5 0 1 0 -15 0zM1869.6 396.34 a7.5 7.5 0 1 0 15 0 a7.5 7.5 0 1 0 -15 0zM1804.65 433.84 a7.5 7.5 0 1 0 15 0 a7.5 7.5 0 1 0 -15 0zM1739.7 396.34 a7.5 7.5 0 1 0 15 0 a7.5 7.5 0 1 0 -15 0zM1739.7 321.34 a7.5 7.5 0 1 0 15 0 a7.5 7.5 0 1 0 -15 0zM1804.65 733.84 a7.5 7.5 0 1 0 15 0 a7.5 7.5 0 1 0 -15 0zM1869.6 771.34 a7.5 7.5 0 1 0 15 0 a7.5 7.5 0 1 0 -15 0zM1869.6 846.34 a7.5 7.5 0 1 0 15 0 a7.5 7.5 0 1 0 -15 0zM1804.65 883.84 a7.5 7.5 0 1 0 15 0 a7.5 7.5 0 1 0 -15 0zM1804.65 958.84 a7.5 7.5 0 1 0 15 0 a7.5 7.5 0 1 0 -15 0zM1869.6 996.34 a7.5 7.5 0 1 0 15 0 a7.5 7.5 0 1 0 -15 0zM1869.6 1071.34 a7.5 7.5 0 1 0 15 0 a7.5 7.5 0 1 0 -15 0zM1804.65 1108.84 a7.5 7.5 0 1 0 15 0 a7.5 7.5 0 1 0 -15 0zM1804.65 1183.84 a7.5 7.5 0 1 0 15 0 a7.5 7.5 0 1 0 -15 0zM1739.7 1221.34 a7.5 7.5 0 1 0 15 0 a7.5 7.5 0 1 0 -15 0zM1804.65 1408.84 a7.5 7.5 0 1 0 15 0 a7.5 7.5 0 1 0 -15 0zM1869.6 1446.34 a7.5 7.5 0 1 0 15 0 a7.5 7.5 0 1 0 -15 0zM1869.6 1521.34 a7.5 7.5 0 1 0 15 0 a7.5 7.5 0 1 0 -15 0zM1804.65 1558.84 a7.5 7.5 0 1 0 15 0 a7.5 7.5 0 1 0 -15 0zM1739.7 1521.34 a7.5 7.5 0 1 0 15 0 a7.5 7.5 0 1 0 -15 0zM1739.7 1446.34 a7.5 7.5 0 1 0 15 0 a7.5 7.5 0 1 0 -15 0zM1804.65 2308.84 a7.5 7.5 0 1 0 15 0 a7.5 7.5 0 1 0 -15 0zM1869.6 2346.34 a7.5 7.5 0 1 0 15 0 a7.5 7.5 0 1 0 -15 0zM1869.6 2421.34 a7.5 7.5 0 1 0 15 0 a7.5 7.5 0 1 0 -15 0zM1804.65 2458.84 a7.5 7.5 0 1 0 15 0 a7.5 7.5 0 1 0 -15 0zM1739.7 2646.34 a7.5 7.5 0 1 0 15 0 a7.5 7.5 0 1 0 -15 0zM1804.65 2683.84 a7.5 7.5 0 1 0 15 0 a7.5 7.5 0 1 0 -15 0zM1804.65 2758.84 a7.5 7.5 0 1 0 15 0 a7.5 7.5 0 1 0 -15 0zM1674.74 2683.84 a7.5 7.5 0 1 0 15 0 a7.5 7.5 0 1 0 -15 0zM1804.65 2983.84 a7.5 7.5 0 1 0 15 0 a7.5 7.5 0 1 0 -15 0zM1869.6 3021.34 a7.5 7.5 0 1 0 15 0 a7.5 7.5 0 1 0 -15 0zM1869.6 3096.34 a7.5 7.5 0 1 0 15 0 a7.5 7.5 0 1 0 -15 0zM1804.65 3133.84 a7.5 7.5 0 1 0 15 0 a7.5 7.5 0 1 0 -15 0zM1739.7 3096.34 a7.5 7.5 0 1 0 15 0 a7.5 7.5 0 1 0 -15 0zM1739.7 3021.34 a7.5 7.5 0 1 0 15 0 a7.5 7.5 0 1 0 -15 0zM1739.7 3321.34 a7.5 7.5 0 1 0 15 0 a7.5 7.5 0 1 0 -15 0zM1804.65 3358.84 a7.5 7.5 0 1 0 15 0 a7.5 7.5 0 1 0 -15 0zM1804.65 3433.84 a7.5 7.5 0 1 0 15 0 a7.5 7.5 0 1 0 -15 0zM1739.7 3471.34 a7.5 7.5 0 1 0 15 0 a7.5 7.5 0 1 0 -15 0zM1674.74 3433.84 a7.5 7.5 0 1 0 15 0 a7.5 7.5 0 1 0 -15 0zM1674.74 3358.84 a7.5 7.5 0 1 0 15 0 a7.5 7.5 0 1 0 -15 0zM1869.6 3471.34 a7.5 7.5 0 1 0 15 0 a7.5 7.5 0 1 0 -15 0zM1869.6 3546.34 a7.5 7.5 0 1 0 15 0 a7.5 7.5 0 1 0 -15 0zM1804.65 3583.84 a7.5 7.5 0 1 0 15 0 a7.5 7.5 0 1 0 -15 0zM1739.7 3546.34 a7.5 7.5 0 1 0 15 0 a7.5 7.5 0 1 0 -15 0zM1804.65 3658.84 a7.5 7.5 0 1 0 15 0 a7.5 7.5 0 1 0 -15 0zM1869.6 3696.34 a7.5 7.5 0 1 0 15 0 a7.5 7.5 0 1 0 -15 0zM1869.6 3771.34 a7.5 7.5 0 1 0 15 0 a7.5 7.5 0 1 0 -15 0zM1804.65 3808.84 a7.5 7.5 0 1 0 15 0 a7.5 7.5 0 1 0 -15 0zM1739.7 3771.34 a7.5 7.5 0 1 0 15 0 a7.5 7.5 0 1 0 -15 0zM1739.7 3696.34 a7.5 7.5 0 1 0 15 0 a7.5 7.5 0 1 0 -15 0zM1804.65 3883.84 a7.5 7.5 0 1 0 15 0 a7.5 7.5 0 1 0 -15 0zM1739.7 3921.34 a7.5 7.5 0 1 0 15 0 a7.5 7.5 0 1 0 -15 0zM1739.7 3996.34 a7.5 7.5 0 1 0 15 0 a7.5 7.5 0 1 0 -15 0zM1804.65 4033.84 a7.5 7.5 0 1 0 15 0 a7.5 7.5 0 1 0 -15 0zM1804.65 4108.84 a7.5 7.5 0 1 0 15 0 a7.5 7.5 0 1 0 -15 0zM1739.7 4146.34 a7.5 7.5 0 1 0 15 0 a7.5 7.5 0 1 0 -15 0zM1674.74 4108.84 a7.5 7.5 0 1 0 15 0 a7.5 7.5 0 1 0 -15 0zM1674.74 4033.84 a7.5 7.5 0 1 0 15 0 a7.5 7.5 0 1 0 -15 0zM1869.61 -53.66 a7.5 7.5 0 1 0 15 0 a7.5 7.5 0 1 0 -15 0zM1934.56 -16.16 a7.5 7.5 0 1 0 15 0 a7.5 7.5 0 1 0 -15 0zM1934.56 58.84 a7.5 7.5 0 1 0 15 0 a7.5 7.5 0 1 0 -15 0zM1869.61 96.34 a7.5 7.5 0 1 0 15 0 a7.5 7.5 0 1 0 -15 0zM1804.65 58.84 a7.5 7.5 0 1 0 15 0 a7.5 7.5 0 1 0 -15 0zM1804.65 -16.16 a7.5 7.5 0 1 0 15 0 a7.5 7.5 0 1 0 -15 0zM1999.51 96.34 a7.5 7.5 0 1 0 15 0 a7.5 7.5 0 1 0 -15 0zM1999.51 171.34 a7.5 7.5 0 1 0 15 0 a7.5 7.5 0 1 0 -15 0zM1934.56 208.84 a7.5 7.5 0 1 0 15 0 a7.5 7.5 0 1 0 -15 0zM1869.61 171.34 a7.5 7.5 0 1 0 15 0 a7.5 7.5 0 1 0 -15 0zM1869.61 396.34 a7.5 7.5 0 1 0 15 0 a7.5 7.5 0 1 0 -15 0zM1934.56 433.84 a7.5 7.5 0 1 0 15 0 a7.5 7.5 0 1 0 -15 0zM1934.56 508.84 a7.5 7.5 0 1 0 15 0 a7.5 7.5 0 1 0 -15 0zM1869.61 546.34 a7.5 7.5 0 1 0 15 0 a7.5 7.5 0 1 0 -15 0zM1804.65 508.84 a7.5 7.5 0 1 0 15 0 a7.5 7.5 0 1 0 -15 0zM1934.56 958.84 a7.5 7.5 0 1 0 15 0 a7.5 7.5 0 1 0 -15 0zM1999.51 996.34 a7.5 7.5 0 1 0 15 0 a7.5 7.5 0 1 0 -15 0zM1999.51 1071.34 a7.5 7.5 0 1 0 15 0 a7.5 7.5 0 1 0 -15 0zM1934.56 1108.84 a7.5 7.5 0 1 0 15 0 a7.5 7.5 0 1 0 -15 0zM1869.61 1071.34 a7.5 7.5 0 1 0 15 0 a7.5 7.5 0 1 0 -15 0zM1869.61 996.34 a7.5 7.5 0 1 0 15 0 a7.5 7.5 0 1 0 -15 0zM1934.56 1183.84 a7.5 7.5 0 1 0 15 0 a7.5 7.5 0 1 0 -15 0zM1869.61 1221.34 a7.5 7.5 0 1 0 15 0 a7.5 7.5 0 1 0 -15 0zM1934.56 1408.84 a7.5 7.5 0 1 0 15 0 a7.5 7.5 0 1 0 -15 0zM1999.51 1446.34 a7.5 7.5 0 1 0 15 0 a7.5 7.5 0 1 0 -15 0zM1999.51 1521.34 a7.5 7.5 0 1 0 15 0 a7.5 7.5 0 1 0 -15 0zM1934.56 1558.84 a7.5 7.5 0 1 0 15 0 a7.5 7.5 0 1 0 -15 0zM1869.61 1521.34 a7.5 7.5 0 1 0 15 0 a7.5 7.5 0 1 0 -15 0zM1869.61 1446.34 a7.5 7.5 0 1 0 15 0 a7.5 7.5 0 1 0 -15 0zM1934.56 1633.84 a7.5 7.5 0 1 0 15 0 a7.5 7.5 0 1 0 -15 0zM1999.51 1671.34 a7.5 7.5 0 1 0 15 0 a7.5 7.5 0 1 0 -15 0zM1999.51 1746.34 a7.5 7.5 0 1 0 15 0 a7.5 7.5 0 1 0 -15 0zM1934.56 1783.84 a7.5 7.5 0 1 0 15 0 a7.5 7.5 0 1 0 -15 0zM1869.61 1746.34 a7.5 7.5 0 1 0 15 0 a7.5 7.5 0 1 0 -15 0zM1869.61 1671.34 a7.5 7.5 0 1 0 15 0 a7.5 7.5 0 1 0 -15 0zM1934.56 1858.84 a7.5 7.5 0 1 0 15 0 a7.5 7.5 0 1 0 -15 0zM1869.61 1896.34 a7.5 7.5 0 1 0 15 0 a7.5 7.5 0 1 0 -15 0zM1804.65 1858.84 a7.5 7.5 0 1 0 15 0 a7.5 7.5 0 1 0 -15 0zM1804.65 1783.84 a7.5 7.5 0 1 0 15 0 a7.5 7.5 0 1 0 -15 0zM1869.61 2196.34 a7.5 7.5 0 1 0 15 0 a7.5 7.5 0 1 0 -15 0zM1934.56 2233.84 a7.5 7.5 0 1 0 15 0 a7.5 7.5 0 1 0 -15 0zM1934.56 2308.84 a7.5 7.5 0 1 0 15 0 a7.5 7.5 0 1 0 -15 0zM1869.61 2346.34 a7.5 7.5 0 1 0 15 0 a7.5 7.5 0 1 0 -15 0zM1804.65 2233.84 a7.5 7.5 0 1 0 15 0 a7.5 7.5 0 1 0 -15 0zM1934.56 2533.84 a7.5 7.5 0 1 0 15 0 a7.5 7.5 0 1 0 -15 0zM1999.51 2571.34 a7.5 7.5 0 1 0 15 0 a7.5 7.5 0 1 0 -15 0zM1999.51 2646.34 a7.5 7.5 0 1 0 15 0 a7.5 7.5 0 1 0 -15 0zM1934.56 2683.84 a7.5 7.5 0 1 0 15 0 a7.5 7.5 0 1 0 -15 0zM1869.61 2646.34 a7.5 7.5 0 1 0 15 0 a7.5 7.5 0 1 0 -15 0zM1869.61 2571.34 a7.5 7.5 0 1 0 15 0 a7.5 7.5 0 1 0 -15 0zM1934.56 2758.84 a7.5 7.5 0 1 0 15 0 a7.5 7.5 0 1 0 -15 0zM1869.61 2796.34 a7.5 7.5 0 1 0 15 0 a7.5 7.5 0 1 0 -15 0zM1869.61 3996.34 a7.5 7.5 0 1 0 15 0 a7.5 7.5 0 1 0 -15 0zM1934.56 4033.84 a7.5 7.5 0 1 0 15 0 a7.5 7.5 0 1 0 -15 0zM1934.56 4108.84 a7.5 7.5 0 1 0 15 0 a7.5 7.5 0 1 0 -15 0zM1869.61 4146.34 a7.5 7.5 0 1 0 15 0 a7.5 7.5 0 1 0 -15 0z" fill="#03305d"></path><path d="M192.52 1484.39L322.43 1559.39L322.43 1709.39L192.52 1784.39L62.61 1709.39L62.61 1559.39zM192.52 1934.39L322.43 2009.39L322.43 2159.39L192.52 2234.39L62.61 2159.39L62.61 2009.39zM62.61 2159.39L192.52 2234.39L192.52 2384.39L62.61 2459.39L-67.3 2384.39L-67.3 2234.39zM192.52 2384.39L322.43 2459.39L322.43 2609.39L192.52 2684.39L62.61 2609.39L62.61 2459.39zM62.61 3059.39L192.52 3134.39L192.52 3284.39L62.61 3359.39L-67.3 3284.39L-67.3 3134.39zM192.52 3734.39L322.43 3809.39L322.43 3959.39L192.52 4034.39L62.61 3959.39L62.61 3809.39zM452.33 1034.39L582.24 1109.39L582.24 1259.39L452.33 1334.39L322.43 1259.39L322.43 1109.39zM322.43 1709.39L452.33 1784.39L452.33 1934.39L322.43 2009.39L192.52 1934.39L192.52 1784.39zM322.43 3509.39L452.33 3584.39L452.33 3734.39L322.43 3809.39L192.52 3734.39L192.52 3584.39zM582.24 359.39L712.15 434.39L712.15 584.39L582.24 659.39L452.33 584.39L452.33 434.39zM582.24 1709.39L712.15 1784.39L712.15 1934.39L582.24 2009.39L452.33 1934.39L452.33 1784.39zM712.15 2834.39L842.06 2909.39L842.06 3059.39L712.15 3134.39L582.24 3059.39L582.24 2909.39zM712.15 3284.39L842.06 3359.39L842.06 3509.39L712.15 3584.39L582.24 3509.39L582.24 3359.39zM971.96 1034.39L1101.87 1109.39L1101.87 1259.39L971.96 1334.39L842.05 1259.39L842.05 1109.39zM842.05 1709.39L971.96 1784.39L971.96 1934.39L842.05 2009.39L712.15 1934.39L712.15 1784.39zM842.05 2609.39L971.96 2684.39L971.96 2834.39L842.05 2909.39L712.15 2834.39L712.15 2684.39zM842.05 3059.39L971.96 3134.39L971.96 3284.39L842.05 3359.39L712.15 3284.39L712.15 3134.39zM842.05 3509.39L971.96 3584.39L971.96 3734.39L842.05 3809.39L712.15 3734.39L712.15 3584.39zM842.05 3959.39L971.96 4034.39L971.96 4184.39L842.05 4259.39L712.15 4184.39L712.15 4034.39zM1101.87 2159.39L1231.78 2234.39L1231.78 2384.39L1101.87 2459.39L971.96 2384.39L971.96 2234.39zM1101.87 3959.39L1231.78 4034.39L1231.78 4184.39L1101.87 4259.39L971.96 4184.39L971.96 4034.39zM1361.68 -90.61L1491.59 -15.61L1491.59 134.39L1361.68 209.39L1231.78 134.39L1231.78 -15.61zM1361.68 1259.39L1491.59 1334.39L1491.59 1484.39L1361.68 1559.39L1231.78 1484.39L1231.78 1334.39zM1491.59 2384.39L1621.5 2459.39L1621.5 2609.39L1491.59 2684.39L1361.68 2609.39L1361.68 2459.39zM1361.68 2609.39L1491.59 2684.39L1491.59 2834.39L1361.68 2909.39L1231.78 2834.39L1231.78 2684.39zM1491.59 3284.39L1621.5 3359.39L1621.5 3509.39L1491.59 3584.39L1361.68 3509.39L1361.68 3359.39zM1361.68 3959.39L1491.59 4034.39L1491.59 4184.39L1361.68 4259.39L1231.78 4184.39L1231.78 4034.39zM1621.5 -90.61L1751.41 -15.61L1751.41 134.39L1621.5 209.39L1491.59 134.39L1491.59 -15.61zM1751.41 134.39L1881.31 209.39L1881.31 359.39L1751.41 434.39L1621.5 359.39L1621.5 209.39zM1621.5 809.39L1751.41 884.39L1751.41 1034.39L1621.5 1109.39L1491.59 1034.39L1491.59 884.39zM1621.5 1709.39L1751.41 1784.39L1751.41 1934.39L1621.5 2009.39L1491.59 1934.39L1491.59 1784.39zM1751.41 1934.39L1881.31 2009.39L1881.31 2159.39L1751.41 2234.39L1621.5 2159.39L1621.5 2009.39zM1621.5 2159.39L1751.41 2234.39L1751.41 2384.39L1621.5 2459.39L1491.59 2384.39L1491.59 2234.39zM1621.5 2609.39L1751.41 2684.39L1751.41 2834.39L1621.5 2909.39L1491.59 2834.39L1491.59 2684.39zM1751.41 2834.39L1881.31 2909.39L1881.31 3059.39L1751.41 3134.39L1621.5 3059.39L1621.5 2909.39zM2011.22 584.39L2141.13 659.39L2141.13 809.39L2011.22 884.39L1881.31 809.39L1881.31 659.39zM2011.22 1034.39L2141.13 1109.39L2141.13 1259.39L2011.22 1334.39L1881.31 1259.39L1881.31 1109.39zM1881.31 1259.39L2011.22 1334.39L2011.22 1484.39L1881.31 1559.39L1751.41 1484.39L1751.41 1334.39zM2011.22 1484.39L2141.13 1559.39L2141.13 1709.39L2011.22 1784.39L1881.31 1709.39L1881.31 1559.39zM1881.31 1709.39L2011.22 1784.39L2011.22 1934.39L1881.31 2009.39L1751.41 1934.39L1751.41 1784.39zM2011.22 2384.39L2141.13 2459.39L2141.13 2609.39L2011.22 2684.39L1881.31 2609.39L1881.31 2459.39z" stroke="rgba(6, 80, 156, 0.93)" stroke-width="2"></path></g><defs><mask id="SvgjsMask1117"><rect width="1920" height="4000" fill="#ffffff"></rect></mask></defs></svg>